<?xml version="1.0" encoding="utf-8"?>
<!-- Generator: Adobe Illustrator 16.0.0, SVG Export Plug-In . SVG Version: 6.00 Build 0)  -->
<!DOCTYPE svg PUBLIC "-//W3C//DTD SVG 1.1//EN" "http://www.w3.org/Graphics/SVG/1.1/DTD/svg11.dtd">
<svg version="1.1" id="Capa_1" xmlns="http://www.w3.org/2000/svg" xmlns:xlink="http://www.w3.org/1999/xlink" x="0px" y="0px"
	 width="500px" height="500px" viewBox="0 0 500 500" enable-background="new 0 0 500 500" xml:space="preserve">
<g>
	<path d="M178.146,144.023c0.615,1.907,1.116,3.868,1.491,5.827c0.483,2.529,2.696,4.288,5.179,4.288c0.33,0,0.664-0.03,0.999-0.095
		c2.864-0.547,4.741-3.314,4.193-6.178c-0.457-2.382-1.066-4.765-1.813-7.082c-0.894-2.774-3.864-4.301-6.644-3.404
		C178.773,138.274,177.249,141.249,178.146,144.023z"/>
	<path d="M124.352,103.285c-0.005,2.915,2.354,5.283,5.27,5.288c15.244,0.026,30.173,7.324,39.938,19.522
		c1.042,1.302,2.576,1.98,4.126,1.98c1.156,0,2.321-0.379,3.295-1.158c2.276-1.822,2.644-5.145,0.822-7.421
		c-11.745-14.672-29.751-23.452-48.164-23.482c-0.004,0-0.007,0-0.009,0C126.719,98.015,124.357,100.372,124.352,103.285z"/>
	<path d="M147.232,281.364h-23.721c-2.915,0-5.279,2.364-5.279,5.279s2.364,5.279,5.279,5.279h23.721
		c2.915,0,5.279-2.364,5.279-5.279S150.147,281.364,147.232,281.364z"/>
	<path d="M498.453,320.529l-16.189-16.191c-10.361-10.36-26.506-11.488-38.13-3.402l-10.578-10.576
		c1.592,0.211,2.665,0.351,2.722,0.351c1.146,0,2.271-0.374,3.194-1.074c1.115-0.849,1.846-2.104,2.036-3.491l13.133-96.244
		c0.396-2.888-1.626-5.55-4.515-5.944l-22.695-3.104c-14.518-1.981-28.054,6.9-32.416,20.372l-51.234-6.988
		c-3.628-0.496-7.248-0.64-10.827-0.463v-23.338c0-11.117-4.328-21.555-12.177-29.387c-7.828-7.846-18.261-12.168-29.379-12.168
		c-11.099,0-21.532,4.322-29.382,12.174c-7.848,7.852-12.166,18.287-12.156,29.381v28.183h-20.42l-20.94-20.941
		c1.531-6.237,2.36-12.748,2.36-19.451c0-45.008-36.617-81.625-81.625-81.625c-41.013,0-75.044,30.408-80.765,69.86l-37.601,37.601
		C3.86,191.07,0,200.389,0,210.302c0,9.912,3.86,19.231,10.87,26.24l85.26,85.26v8.835c0,32.015,26.045,58.06,58.058,58.06h8.29
		l4.169,4.166c20.358,20.358,47.089,30.534,73.83,30.534c26.735,0,53.48-10.181,73.831-30.534l52.209-52.018l55.787,55.834
		c1.03,1.03,2.382,1.547,3.732,1.547c1.35,0,2.702-0.517,3.732-1.547l68.685-68.686C500.515,325.934,500.515,322.59,498.453,320.529
		z M371.796,331.193v-39.962c8.287-1.122,16.283-4.854,22.637-11.21c2.363-2.36,4.378-4.975,6.056-7.798l22.823,22.821
		l-43.832,43.832L371.796,331.193z M310.33,279.506l-22.986-22.985l1.527-11.175c0.007-0.049,0.016-0.095,0.023-0.143
		c3.082,1.51,6.357,2.619,9.801,3.295c2.572,0.506,5.153,0.755,7.718,0.755c6.163,0,12.209-1.468,17.742-4.272l9.539,12.552
		c-2.914,2.007-5.675,4.283-8.23,6.84L310.33,279.506z M334.868,204.27c0.681,3.639,0.666,7.325-0.053,10.983
		c-1.496,7.608-5.864,14.179-12.302,18.502c-6.438,4.324-14.171,5.883-21.783,4.384c-3.262-0.642-6.318-1.804-9.121-3.455
		c3.127-8.163,8.457-15.32,15.588-20.742C315.284,207.793,324.902,204.47,334.868,204.27z M366.517,247.366
		c-8.237,0-16.204,1.72-23.517,4.962l-10.114-13.308c6.32-5.691,10.62-13.235,12.29-21.729c0.794-4.041,0.946-8.106,0.485-12.141
		l29.2,3.983l-5.218,38.323C368.605,247.399,367.564,247.366,366.517,247.366z M366.517,257.925c9.244,0,18.079,2.634,25.666,7.528
		c-1.363,2.609-3.103,4.991-5.214,7.104c-11.319,11.316-29.735,11.318-41.054,0c-2.103-2.104-3.829-4.461-5.18-7.031
		C348.35,260.584,357.227,257.925,366.517,257.925z M431.763,279.484l-8.351-1.141l11.715-85.782l8.341,1.141L431.763,279.484z
		 M398.356,212.336c2.902,0.379,5.55-1.628,5.943-4.518c1.375-10.078,10.354-17.264,20.356-16.618l-10.846,79.413l-6.241-6.241
		c-7.689-7.689-17.157-12.946-27.475-15.407l5.229-38.408L398.356,212.336z M300.808,205.537
		c-6.808,5.175-12.271,11.647-16.163,18.984l-24.226-24.225c0,0,0.014-30.689,0.029-31.1h61.916
		c0.016,0.413,0.03,26.092,0.03,26.092C314.664,197.139,307.327,200.581,300.808,205.537z M291.398,139.439
		c8.293,0,16.071,3.219,21.913,9.076c2.95,2.942,5.23,6.379,6.77,10.122h-57.353c1.537-3.739,3.812-7.173,6.758-10.119
		C275.338,142.664,283.121,139.439,291.398,139.439z M254.369,209.177c0,0,25.717,25.661,25.975,25.84
		c-0.863,2.888-1.518,5.858-1.932,8.902l-0.441,3.229L240,209.178L254.369,209.177L254.369,209.177z M302.865,286.973
		l-16.254,16.253l-93.838-93.836c4.959-6.146,9.042-13.022,12.068-20.442L302.865,286.973z M200.304,158.226
		c0,2.458-0.125,4.886-0.371,7.28c-17.316,16.826-40.701,23.938-60.865,18.71c-0.387-6.619-3.117-12.794-7.846-17.52
		c-5.109-5.11-11.902-7.924-19.126-7.924c-1.159,0-2.302,0.099-3.433,0.242c-9.939-21.561-3.406-49.669,16.639-69.713
		c0.742-0.742,1.469-1.432,2.187-2.094c0.583-0.015,1.164-0.045,1.751-0.045C168.422,87.161,200.304,119.041,200.304,158.226z
		 M112.095,169.331c4.404,0,8.547,1.716,11.662,4.831s4.831,7.257,4.831,11.663c0,4.405-1.716,8.547-4.831,11.662
		s-7.257,4.831-11.662,4.831c-4.406,0-8.548-1.716-11.663-4.832c-3.115-3.113-4.831-7.255-4.831-11.66
		c0-4.406,1.716-8.548,4.831-11.663S107.689,169.331,112.095,169.331z M110.987,89.547C93.588,111.59,88.701,139.75,98.6,162.4
		c-2.028,1.173-3.932,2.595-5.633,4.297c-5.11,5.109-7.924,11.903-7.924,19.128s2.815,14.019,7.924,19.127
		c5.109,5.11,11.902,7.924,19.128,7.924s14.018-2.814,19.126-7.923c2.929-2.929,5.073-6.421,6.397-10.221
		c4.848,1.151,9.832,1.724,14.865,1.724c14.916,0,30.246-4.953,43.627-14.19c-9.876,27.391-36.12,47.029-66.872,47.029
		c-39.186,0-71.067-31.88-71.067-71.067C58.17,125.35,80.617,97.625,110.987,89.547z M96.13,254.767L25.613,184.25l22.098-22.097
		c1.5,31.543,20.997,58.435,48.418,70.657v21.958H96.13z M39.981,250.723l18.588-18.588l8.325,8.325l-18.588,18.588L39.981,250.723z
		 M10.559,210.302c0-7.004,2.703-13.586,7.599-18.579l32.946,32.946l-18.588,18.588l-14.18-14.18
		C13.321,224.062,10.559,217.394,10.559,210.302z M55.771,266.513l18.588-18.588l21.771,21.771v37.176L55.771,266.513z
		 M107.417,338.867c10.185-4.654,22.254-2.608,30.356,5.492c8.551,8.551,10.252,21.898,4.54,32.276
		C124.451,372.02,110.642,357.242,107.417,338.867z M153.329,378.117c4.962-11.688,3.693-25.081-3.498-35.655l26.309-26.31h31.282
		c0.415,0,0.825,0.016,1.237,0.031v61.925C208.249,378.123,153.616,378.123,153.329,378.117z M238.417,347.146
		c0,12.915-7.943,24.006-19.199,28.654v-57.312C230.473,323.139,238.417,334.23,238.417,347.146z M306.843,385.398
		c-35.46,35.457-92.465,36.558-129.26,3.299h29.839c22.912,0,41.551-18.64,41.551-41.551c0-22.912-18.639-41.553-41.551-41.553
		h-28.188v-58.547c0-2.916-2.364-5.279-5.279-5.279s-5.279,2.364-5.279,5.279v61.641l-25.932,25.931
		c-10.133-8.489-23.779-10.931-36.055-6.8v-91.16c7.167,2.063,14.726,3.193,22.548,3.193c21.855,0,41.715-8.65,56.381-22.686
		l93.526,93.525l-12.79,12.79c-2.063,2.062-2.063,5.404,0,7.465c2.06,2.062,5.405,2.062,7.465,0l58.628-58.627
		c1.662,2.779,3.658,5.361,6,7.703c6.395,6.394,14.45,10.131,22.79,11.227v39.945L306.843,385.398z M386.946,346.341l43.831-43.831
		l9.295,9.295c2.062,2.062,5.405,2.062,7.464,0c7.192-7.189,18.685-7.48,26.25-0.915l-61.172,61.17L386.946,346.341z
		 M426.036,385.48l-5.957-5.956l61.221-61.219l5.955,5.956L426.036,385.48z"/>
</g>
</svg>
