<svg xmlns="http://www.w3.org/2000/svg" width="500" height="500" viewBox="0 0 500 500"><path d="M493.31 241.641a6.629 6.629 0 0 1-6.627-6.895c.04-1.01.062-2.025.062-3.043a6.627 6.627 0 1 1 13.254 0c0 1.197-.024 2.39-.073 3.579a6.626 6.626 0 0 1-6.616 6.359zM314.418 357.175l-.104-.001c-2.307-.036-4.6-.107-6.879-.216a6.63 6.63 0 0 1-6.308-6.935 6.617 6.617 0 0 1 6.934-6.307c2.14.1 4.292.168 6.457.201a6.626 6.626 0 0 1 6.523 6.729 6.627 6.627 0 0 1-6.623 6.529zm23.323-.743a6.628 6.628 0 0 1-6.601-6.125 6.626 6.626 0 0 1 6.104-7.111c2.169-.166 4.324-.359 6.468-.582 3.627-.371 6.897 2.271 7.274 5.911a6.628 6.628 0 0 1-5.911 7.274c-2.261.233-4.535.438-6.822.611a5.524 5.524 0 0 1-.512.022zm-53.196-1.893a6.46 6.46 0 0 1-1.078-.088 197.345 197.345 0 0 1-6.788-1.23 6.628 6.628 0 0 1 2.587-13c2.082.414 4.216.801 6.342 1.148a6.627 6.627 0 0 1-1.063 13.17zm82.924-2.18a6.63 6.63 0 0 1-1.288-13.129c2.131-.425 4.244-.879 6.34-1.357a6.623 6.623 0 0 1 7.938 4.98 6.627 6.627 0 0 1-4.98 7.939c-2.217.508-4.453.986-6.709 1.436-.437.09-.873.131-1.301.131zm-112.058-4.979a6.61 6.61 0 0 1-2.106-.344 183.586 183.586 0 0 1-6.526-2.327 6.628 6.628 0 1 1 4.694-12.397 164.6 164.6 0 0 0 6.042 2.154 6.628 6.628 0 0 1-2.104 12.914zm141.05-2.769a6.627 6.627 0 0 1-2.133-12.902 206.83 206.83 0 0 0 6.09-2.176 6.628 6.628 0 0 1 4.655 12.411c-2.133.8-4.292 1.571-6.477 2.315a6.684 6.684 0 0 1-2.135.352zm-168.499-9.303a6.59 6.59 0 0 1-3.24-.851 146.15 146.15 0 0 1-6.011-3.565 6.629 6.629 0 0 1 7.039-11.233 133.649 133.649 0 0 0 5.462 3.241 6.628 6.628 0 0 1 2.534 9.023 6.62 6.62 0 0 1-5.784 3.385zm196.133-2.379a6.628 6.628 0 0 1-5.896-3.591 6.626 6.626 0 0 1 2.851-8.928 179.14 179.14 0 0 0 5.661-3.051 6.628 6.628 0 0 1 6.502 11.551 191.54 191.54 0 0 1-6.086 3.28 6.6 6.6 0 0 1-3.032.739zm-220.393-15.177a6.6 6.6 0 0 1-4.527-1.79 112.029 112.029 0 0 1-5.024-5.01 6.628 6.628 0 1 1 9.662-9.076 96.823 96.823 0 0 0 4.421 4.41 6.627 6.627 0 0 1-4.532 11.466zm245.763-.802a6.627 6.627 0 0 1-4.04-11.886 141.737 141.737 0 0 0 4.969-3.992 6.629 6.629 0 0 1 8.534 10.144 154.984 154.984 0 0 1-5.433 4.363 6.593 6.593 0 0 1-4.03 1.371zm21.66-20.684a6.628 6.628 0 0 1-5.106-10.85 107.156 107.156 0 0 0 3.856-4.953 6.63 6.63 0 0 1 9.263-1.435 6.63 6.63 0 0 1 1.435 9.263 121.777 121.777 0 0 1-4.336 5.568 6.607 6.607 0 0 1-5.112 2.407zm-285.78-2.077a6.63 6.63 0 0 1-5.863-3.525 81.146 81.146 0 0 1-3.11-6.557 6.628 6.628 0 0 1 12.222-5.135 66.705 66.705 0 0 0 2.603 5.484 6.63 6.63 0 0 1-5.852 9.733zm301.402-23.416a6.629 6.629 0 0 1-6.112-9.189 82.486 82.486 0 0 0 2.165-5.773 6.626 6.626 0 0 1 8.38-4.197 6.625 6.625 0 0 1 4.197 8.38 95.118 95.118 0 0 1-2.516 6.707 6.622 6.622 0 0 1-6.114 4.072zM226.275 91.981l-.084-.001c-1.074-.013-2.152-.02-3.232-.02a6.627 6.627 0 1 1 0-13.254c1.136 0 2.268.007 3.398.021a6.627 6.627 0 0 1-.082 13.254zm58.557 212.225a6.628 6.628 0 0 1-.847-13.2c2.13-.278 4.276-.595 6.379-.939a6.627 6.627 0 0 1 2.154 13.078c-2.25.371-4.546.709-6.822 1.006-.291.037-.58.055-.864.055zm29.359-6.157a6.63 6.63 0 0 1-6.354-4.754 6.627 6.627 0 0 1 4.48-8.232 175.696 175.696 0 0 0 6.128-1.932 6.628 6.628 0 0 1 4.223 12.565 186.374 186.374 0 0 1-6.598 2.081 6.621 6.621 0 0 1-1.879.272zm27.913-10.971a6.629 6.629 0 0 1-2.991-12.547 140.046 140.046 0 0 0 5.617-2.996 6.622 6.622 0 0 1 9.027 2.52 6.624 6.624 0 0 1-2.52 9.027 154.534 154.534 0 0 1-6.153 3.285 6.629 6.629 0 0 1-2.98.711zm25.123-16.316a6.626 6.626 0 0 1-4.243-11.721c1.621-1.348 3.2-2.746 4.697-4.152a6.628 6.628 0 0 1 9.079 9.659 118.487 118.487 0 0 1-5.296 4.683 6.614 6.614 0 0 1-4.237 1.531zm19.949-22.26a6.628 6.628 0 0 1-5.58-10.195 73.185 73.185 0 0 0 3.072-5.281 6.629 6.629 0 0 1 11.73 6.174 86.968 86.968 0 0 1-3.631 6.242 6.621 6.621 0 0 1-5.591 3.06zm10.724-27.785a6.629 6.629 0 0 1-6.56-7.629c.301-1.974.503-3.979.603-5.964.183-3.657 3.3-6.464 6.947-6.292a6.628 6.628 0 0 1 6.292 6.948 72.15 72.15 0 0 1-.738 7.307 6.628 6.628 0 0 1-6.544 5.63zm-1.709-29.763a6.632 6.632 0 0 1-6.427-5.028 78.827 78.827 0 0 0-1.718-5.907 6.629 6.629 0 0 1 12.574-4.194 92.538 92.538 0 0 1 2.007 6.897 6.626 6.626 0 0 1-4.829 8.033 6.584 6.584 0 0 1-1.607.199zm-11.965-27.367a6.618 6.618 0 0 1-5.588-3.055 99.164 99.164 0 0 0-3.537-5.154 6.629 6.629 0 0 1 10.693-7.836 114.558 114.558 0 0 1 4.01 5.841 6.629 6.629 0 0 1-5.578 10.204zm-19.354-22.842a6.6 6.6 0 0 1-4.5-1.764 132.988 132.988 0 0 0-4.766-4.2 6.628 6.628 0 0 1 8.526-10.149 147.428 147.428 0 0 1 5.24 4.622 6.624 6.624 0 0 1 .362 9.365 6.594 6.594 0 0 1-4.862 2.126zm-23.965-18.009a6.58 6.58 0 0 1-3.459-.98 171.542 171.542 0 0 0-5.535-3.251 6.629 6.629 0 0 1 6.497-11.554c2.027 1.14 4.036 2.32 5.971 3.508a6.628 6.628 0 1 1-3.474 12.277zm-26.761-13.529c-.839 0-1.693-.16-2.518-.499a209.486 209.486 0 0 0-6.016-2.364 6.627 6.627 0 0 1-3.88-8.532 6.625 6.625 0 0 1 8.532-3.879c2.161.81 4.295 1.65 6.402 2.516a6.629 6.629 0 0 1-2.52 12.758zm-28.467-9.448a6.652 6.652 0 0 1-1.664-.213 228.994 228.994 0 0 0-6.301-1.533 6.628 6.628 0 0 1 2.953-12.923c2.242.513 4.463 1.053 6.664 1.623a6.629 6.629 0 0 1-1.652 13.046zm-29.462-5.671a6.82 6.82 0 0 1-.861-.055 238.555 238.555 0 0 0-6.453-.75 6.628 6.628 0 0 1 1.357-13.185c2.281.235 4.55.499 6.801.791a6.63 6.63 0 0 1 5.721 7.426 6.63 6.63 0 0 1-6.565 5.773zM6.627 274.925A6.628 6.628 0 0 1 0 268.298c0-1.2.025-2.394.073-3.584.151-3.657 3.237-6.483 6.896-6.35a6.628 6.628 0 0 1 6.349 6.896 73.067 73.067 0 0 0-.062 3.039 6.628 6.628 0 0 1-6.629 6.626zm4.283-26.199a6.626 6.626 0 0 1-6.289-8.72 95.107 95.107 0 0 1 2.515-6.707 6.628 6.628 0 0 1 12.229 5.116 82.184 82.184 0 0 0-2.166 5.773 6.634 6.634 0 0 1-6.289 4.538zm306.61-23.637a6.63 6.63 0 0 1-6.114-4.062 67.016 67.016 0 0 0-2.603-5.484 6.63 6.63 0 0 1 2.753-8.96c3.237-1.709 7.247-.481 8.961 2.753a81.295 81.295 0 0 1 3.109 6.557 6.628 6.628 0 0 1-6.106 9.196zm-292.751-2.838a6.63 6.63 0 0 1-5.344-10.543 120.833 120.833 0 0 1 4.337-5.57 6.627 6.627 0 0 1 9.331-.886 6.626 6.626 0 0 1 .886 9.331 106.565 106.565 0 0 0-3.856 4.954 6.62 6.62 0 0 1-5.354 2.714zm20.571-21.769a6.629 6.629 0 0 1-4.27-11.699 156.15 156.15 0 0 1 5.433-4.363 6.628 6.628 0 0 1 8.07 10.516 139.463 139.463 0 0 0-4.969 3.992 6.615 6.615 0 0 1-4.264 1.554zm255.68-.27a6.612 6.612 0 0 1-4.832-2.089 98.42 98.42 0 0 0-4.422-4.411 6.628 6.628 0 1 1 9.059-9.676 112.029 112.029 0 0 1 5.024 5.01 6.63 6.63 0 0 1-.293 9.37 6.609 6.609 0 0 1-4.536 1.796zM70.043 183.493a6.627 6.627 0 0 1-3.258-12.404 192.583 192.583 0 0 1 6.085-3.28 6.626 6.626 0 0 1 8.929 2.852 6.626 6.626 0 0 1-2.852 8.928c-1.916.988-3.82 2.015-5.661 3.05a6.56 6.56 0 0 1-3.243.854zm207.718-2.14a6.592 6.592 0 0 1-3.513-1.012 132.557 132.557 0 0 0-5.463-3.241 6.627 6.627 0 1 1 6.49-11.557 146.204 146.204 0 0 1 6.012 3.566 6.628 6.628 0 0 1-3.526 12.244zM97.257 170.891a6.628 6.628 0 0 1-2.328-12.834c2.132-.8 4.292-1.571 6.477-2.315a6.629 6.629 0 0 1 4.268 12.55 207.795 207.795 0 0 0-6.089 2.175 6.6 6.6 0 0 1-2.328.424zm153.615-2.772a6.606 6.606 0 0 1-2.347-.431 165.145 165.145 0 0 0-6.042-2.155 6.627 6.627 0 0 1 4.21-12.569c2.191.735 4.386 1.518 6.527 2.328a6.628 6.628 0 0 1-2.348 12.827zm-124.878-5.826a6.63 6.63 0 0 1-1.473-13.09c2.217-.508 4.453-.986 6.708-1.436a6.63 6.63 0 0 1 7.795 5.205 6.63 6.63 0 0 1-5.205 7.795c-2.131.424-4.245.877-6.34 1.357a6.602 6.602 0 0 1-1.485.169zm96.041-2.387c-.43 0-.864-.042-1.301-.13-2.082-.415-4.215-.8-6.341-1.148a6.627 6.627 0 0 1-5.471-7.611c.592-3.613 4-6.07 7.611-5.47 2.275.372 4.56.785 6.788 1.23a6.628 6.628 0 0 1-1.286 13.129zm-66.438-2.486a6.628 6.628 0 0 1-.671-13.221c2.26-.233 4.533-.438 6.821-.612 3.65-.264 6.834 2.455 7.112 6.105a6.627 6.627 0 0 1-6.105 7.112c-2.168.166-4.325.359-6.468.582-.23.022-.461.034-.689.034zm36.659-1.132c-.105 0-.211-.003-.318-.007-2.14-.101-4.292-.169-6.457-.202a6.628 6.628 0 0 1-6.524-6.729c.058-3.661 3.153-6.566 6.729-6.523 2.307.036 4.6.108 6.879.216a6.63 6.63 0 0 1 6.308 6.934 6.632 6.632 0 0 1-6.617 6.311zm84.786 265.007c-1.138 0-2.272-.007-3.402-.022a6.627 6.627 0 1 1 .174-13.253c1.073.014 2.149.021 3.229.021a6.628 6.628 0 1 1-.001 13.254zm-26.616-1.356c-.227 0-.456-.013-.687-.036-2.282-.235-4.55-.499-6.801-.791a6.63 6.63 0 0 1-5.721-7.426 6.631 6.631 0 0 1 7.426-5.721c2.137.278 4.289.528 6.453.751a6.627 6.627 0 0 1 5.914 7.271 6.629 6.629 0 0 1-6.584 5.952zm-29.612-4.862c-.489 0-.985-.056-1.481-.169a241.9 241.9 0 0 1-6.665-1.623 6.627 6.627 0 0 1-4.758-8.075 6.624 6.624 0 0 1 8.075-4.759c2.082.538 4.183 1.049 6.301 1.533a6.628 6.628 0 0 1 4.985 7.938 6.633 6.633 0 0 1-6.457 5.155zm-28.753-8.587a6.594 6.594 0 0 1-2.325-.424 215.623 215.623 0 0 1-6.403-2.515 6.628 6.628 0 0 1 5.038-12.26c1.979.814 3.986 1.602 6.017 2.363a6.626 6.626 0 0 1 3.879 8.531 6.628 6.628 0 0 1-6.206 4.305zm-27.23-12.593a6.58 6.58 0 0 1-3.242-.852 181.695 181.695 0 0 1-5.971-3.508 6.624 6.624 0 0 1-2.182-9.114 6.627 6.627 0 0 1 9.115-2.183 171.542 171.542 0 0 0 5.535 3.251 6.625 6.625 0 0 1 2.528 9.024 6.62 6.62 0 0 1-5.783 3.382zm-24.706-16.977a6.606 6.606 0 0 1-4.261-1.554 147.464 147.464 0 0 1-5.241-4.622 6.626 6.626 0 0 1-.362-9.365 6.624 6.624 0 0 1 9.365-.361 131.951 131.951 0 0 0 4.765 4.199 6.63 6.63 0 0 1-4.266 11.703zm-20.566-21.753a6.621 6.621 0 0 1-5.352-2.71 113.48 113.48 0 0 1-4.009-5.842 6.629 6.629 0 0 1 11.163-7.148 99.767 99.767 0 0 0 3.537 5.153 6.63 6.63 0 0 1-5.339 10.547zm-13.896-26.462a6.629 6.629 0 0 1-6.286-4.533 93.134 93.134 0 0 1-2.007-6.896 6.627 6.627 0 0 1 4.829-8.033 6.627 6.627 0 0 1 8.033 4.829 79.025 79.025 0 0 0 1.718 5.907 6.629 6.629 0 0 1-6.287 8.726zm-4.22-29.533a6.628 6.628 0 0 1-6.625-6.955c.12-2.434.369-4.891.738-7.308a6.627 6.627 0 0 1 7.552-5.552 6.627 6.627 0 0 1 5.552 7.552 59.602 59.602 0 0 0-.603 5.964 6.629 6.629 0 0 1-6.614 6.299zm8.018-28.656a6.63 6.63 0 0 1-5.86-9.716 86.344 86.344 0 0 1 3.63-6.241 6.628 6.628 0 0 1 11.172 7.132 73.574 73.574 0 0 0-3.073 5.281 6.623 6.623 0 0 1-5.869 3.544zm18.318-23.605a6.629 6.629 0 0 1-4.54-11.458 117.293 117.293 0 0 1 5.296-4.682 6.627 6.627 0 0 1 9.333.854 6.625 6.625 0 0 1-.854 9.333 104.383 104.383 0 0 0-4.698 4.153 6.594 6.594 0 0 1-4.537 1.8zm24.244-17.591a6.628 6.628 0 0 1-3.26-12.402 155.231 155.231 0 0 1 6.153-3.285 6.624 6.624 0 0 1 8.903 2.932 6.628 6.628 0 0 1-2.931 8.903 138.11 138.11 0 0 0-5.617 2.996 6.6 6.6 0 0 1-3.248.856zm27.419-12.103a6.63 6.63 0 0 1-2.111-12.912 188.482 188.482 0 0 1 6.598-2.082 6.627 6.627 0 0 1 3.751 12.712 175.696 175.696 0 0 0-6.128 1.932c-.698.237-1.41.35-2.11.35zm29.109-7.195a6.628 6.628 0 0 1-1.07-13.167c2.25-.371 4.546-.709 6.822-1.006 3.624-.461 6.955 2.088 7.427 5.718s-2.087 6.955-5.716 7.427c-2.13.278-4.276.595-6.378.94a6.67 6.67 0 0 1-1.085.088zm197.141-80.881a6.594 6.594 0 0 1-3.817-1.215c-.861-.608-1.731-1.21-2.616-1.808a6.628 6.628 0 0 1 7.419-10.985c.961.649 1.908 1.305 2.845 1.965a6.626 6.626 0 0 1 1.589 9.236 6.62 6.62 0 0 1-5.42 2.807zm-91.554 193.804a6.627 6.627 0 0 1-6.613-6.291 6.625 6.625 0 0 1 6.281-6.955c2.123-.107 4.243-.248 6.358-.424 3.641-.305 6.85 2.412 7.15 6.059a6.628 6.628 0 0 1-6.059 7.152c-2.253.186-4.513.336-6.776.451a6.467 6.467 0 0 1-.341.008zm-23.009-.105c-.135 0-.269-.004-.402-.013a215.66 215.66 0 0 1-6.777-.515 6.626 6.626 0 0 1-5.989-7.209c.336-3.646 3.579-6.327 7.209-5.99a197.4 197.4 0 0 0 6.35.482 6.628 6.628 0 0 1-.391 13.245zm52.373-3.526a6.63 6.63 0 0 1-1.291-13.128c2.069-.413 4.157-.868 6.206-1.352a6.627 6.627 0 1 1 3.043 12.901 191.546 191.546 0 0 1-6.653 1.448c-.437.09-.873.131-1.305.131zm-81.703-.382a6.68 6.68 0 0 1-1.368-.143c-2.23-.469-4.466-.979-6.644-1.517a6.625 6.625 0 0 1-4.846-8.022 6.621 6.621 0 0 1 8.023-4.846c2.028.5 4.111.975 6.191 1.412a6.626 6.626 0 0 1 5.123 7.849 6.63 6.63 0 0 1-6.479 5.267zm110.162-7.702a6.629 6.629 0 0 1-2.339-12.832 153.27 153.27 0 0 0 5.863-2.344c3.369-1.428 7.26.147 8.688 3.519s-.149 7.261-3.519 8.688a174.52 174.52 0 0 1-6.356 2.541 6.636 6.636 0 0 1-2.337.428zm-138.541-.687a6.595 6.595 0 0 1-2.409-.456 171.913 171.913 0 0 1-6.329-2.618 6.626 6.626 0 0 1-3.415-8.728 6.623 6.623 0 0 1 8.728-3.415c1.914.836 3.878 1.65 5.836 2.414a6.627 6.627 0 0 1-2.411 12.803zm165.103-12.297a6.628 6.628 0 0 1-3.502-12.259 134.563 134.563 0 0 0 4.234-2.745l1.012-.692c3.016-2.071 7.145-1.306 9.216 1.711s1.306 7.144-1.711 9.216l-1.074.734a142.211 142.211 0 0 1-4.684 3.036 6.591 6.591 0 0 1-3.491.999zm23.398-18.051a6.628 6.628 0 0 1-4.572-11.426 121.533 121.533 0 0 0 4.408-4.418 6.629 6.629 0 0 1 9.622 9.117 135.885 135.885 0 0 1-4.888 4.896 6.599 6.599 0 0 1-4.57 1.831zm18.718-22.83a6.627 6.627 0 0 1-5.631-10.114 94.25 94.25 0 0 0 3.055-5.324 6.627 6.627 0 1 1 11.711 6.207 106.454 106.454 0 0 1-3.491 6.088 6.624 6.624 0 0 1-5.644 3.143zm11.458-27.168a6.627 6.627 0 0 1-6.452-8.171 79.01 79.01 0 0 0 1.185-5.95 6.627 6.627 0 0 1 13.09 2.083 91.955 91.955 0 0 1-1.384 6.952 6.629 6.629 0 0 1-6.439 5.086zm1.705-29.394a6.628 6.628 0 0 1-6.567-5.804 74.212 74.212 0 0 0-.998-5.953 6.629 6.629 0 0 1 12.973-2.725 86.274 86.274 0 0 1 1.177 7.028 6.626 6.626 0 0 1-5.751 7.4 6.593 6.593 0 0 1-.834.054zm-8.789-28.119a6.628 6.628 0 0 1-5.912-3.624 90.96 90.96 0 0 0-2.966-5.365 6.628 6.628 0 0 1 11.381-6.796 104.58 104.58 0 0 1 3.399 6.149 6.63 6.63 0 0 1-5.902 9.636zm-17.009-24.127a6.614 6.614 0 0 1-4.875-2.135 123.496 123.496 0 0 0-4.347-4.478 6.626 6.626 0 0 1-.099-9.372 6.625 6.625 0 0 1 9.372-.098 135.355 135.355 0 0 1 4.819 4.964 6.626 6.626 0 0 1-4.87 11.119zm-369.21 4.571a6.626 6.626 0 0 1-3.716-12.118 161.59 161.59 0 0 1 2.868-1.897 6.628 6.628 0 0 1 7.204 11.126c-.89.577-1.772 1.161-2.646 1.753a6.628 6.628 0 0 1-3.71 1.136zm268.952 116.917a6.596 6.596 0 0 1-4.452-1.719 6.626 6.626 0 0 1-.456-9.361 86.305 86.305 0 0 0 4.051-4.801 6.627 6.627 0 1 1 10.437 8.172 100.169 100.169 0 0 1-4.669 5.533 6.612 6.612 0 0 1-4.911 2.176zm16.109-25.609a6.628 6.628 0 0 1-6.184-9.009 63.1 63.1 0 0 0 1.923-5.811 6.628 6.628 0 1 1 12.772 3.551 77.026 77.026 0 0 1-2.325 7.022 6.628 6.628 0 0 1-6.186 4.247zm4.288-29.851a6.63 6.63 0 0 1-6.594-6.037 59.66 59.66 0 0 0-.854-6.019 6.626 6.626 0 0 1 5.239-7.771 6.629 6.629 0 0 1 7.771 5.24 72.704 72.704 0 0 1 1.045 7.367 6.629 6.629 0 0 1-6.607 7.22zm-9.273-28.727a6.626 6.626 0 0 1-5.755-3.329 74.566 74.566 0 0 0-3.315-5.252 6.627 6.627 0 0 1 1.691-9.218 6.629 6.629 0 0 1 9.219 1.691 89.19 89.19 0 0 1 3.901 6.181 6.627 6.627 0 0 1-5.741 9.927zm-19.384-23.287a6.6 6.6 0 0 1-4.381-1.657 108.853 108.853 0 0 0-4.902-4.07 6.628 6.628 0 0 1 8.169-10.439 121.808 121.808 0 0 1 5.501 4.569 6.627 6.627 0 0 1-4.387 11.597zm-24.991-17.269a6.599 6.599 0 0 1-3.218-.838 175.685 175.685 0 0 0-5.758-3.066 6.628 6.628 0 0 1 6.019-11.811 196.49 196.49 0 0 1 6.186 3.295 6.626 6.626 0 0 1 2.567 9.014 6.622 6.622 0 0 1-5.796 3.406zm-212.272-5.501a6.631 6.631 0 0 1-5.992-3.784 6.63 6.63 0 0 1 3.14-8.832 202.12 202.12 0 0 1 6.369-2.891c3.355-1.453 7.26.088 8.715 3.447s-.088 7.262-3.447 8.715a189.79 189.79 0 0 0-5.946 2.699 6.553 6.553 0 0 1-2.839.646zm184.615-7.122a6.6 6.6 0 0 1-2.287-.409 201.751 201.751 0 0 0-6.189-2.163 6.628 6.628 0 1 1 4.179-12.582 223.67 223.67 0 0 1 6.587 2.304 6.63 6.63 0 1 1-2.29 12.85zm-156.262-3.827a6.629 6.629 0 0 1-1.937-12.965 231.264 231.264 0 0 1 6.685-1.936 6.628 6.628 0 0 1 3.498 12.786 221.865 221.865 0 0 0-6.305 1.826 6.667 6.667 0 0 1-1.941.289zm127.064-4.676c-.474 0-.954-.051-1.435-.158a237.162 237.162 0 0 0-6.444-1.327 6.626 6.626 0 1 1 2.492-13.018c2.28.437 4.551.904 6.811 1.403a6.628 6.628 0 0 1-1.424 13.1zm-97.469-2.294a6.628 6.628 0 0 1-1.098-13.163c2.277-.386 4.566-.742 6.86-1.067a6.628 6.628 0 0 1 1.858 13.124c-2.174.308-4.343.646-6.503 1.012a6.649 6.649 0 0 1-1.117.094zm67.415-2.409c-.21 0-.421-.011-.634-.031a256.078 256.078 0 0 0-6.569-.536 6.627 6.627 0 0 1-6.158-7.066 6.617 6.617 0 0 1 7.066-6.159c2.31.159 4.614.347 6.915.565a6.627 6.627 0 0 1-.62 13.227zm-37.173-.858a6.626 6.626 0 0 1-6.613-6.307 6.627 6.627 0 0 1 6.298-6.941c2.307-.112 4.617-.193 6.93-.246a6.628 6.628 0 1 1 .299 13.253c-2.196.05-4.392.127-6.587.234-.11.004-.219.007-.327.007zM97.025 386.003a6.594 6.594 0 0 1-3.707-1.139 162.635 162.635 0 0 1-2.838-1.963 6.628 6.628 0 0 1 7.645-10.827c.861.607 1.733 1.212 2.619 1.811a6.628 6.628 0 0 1-3.719 12.118zM76.581 369.42a6.606 6.606 0 0 1-4.636-1.892 133.155 133.155 0 0 1-4.821-4.972 6.627 6.627 0 1 1 9.756-8.973 123.108 123.108 0 0 0 4.338 4.476 6.623 6.623 0 0 1 .098 9.371 6.601 6.601 0 0 1-4.735 1.99zm-18.357-23.119a6.625 6.625 0 0 1-5.707-3.248 104.426 104.426 0 0 1-3.379-6.158 6.628 6.628 0 1 1 11.831-5.979 91.872 91.872 0 0 0 2.951 5.375 6.63 6.63 0 0 1-5.696 10.01zM47.36 318.893a6.634 6.634 0 0 1-6.478-5.255 90.421 90.421 0 0 1-1.197-7.007 6.629 6.629 0 0 1 13.146-1.709c.257 1.983.6 3.99 1.02 5.967a6.627 6.627 0 0 1-6.491 8.004zm-.819-29.434a6.628 6.628 0 0 1-6.558-7.642c.359-2.32.818-4.665 1.365-6.969a6.63 6.63 0 0 1 7.978-4.92 6.626 6.626 0 0 1 4.92 7.977 77.441 77.441 0 0 0-1.164 5.94 6.63 6.63 0 0 1-6.541 5.614zm9.431-27.912a6.627 6.627 0 0 1-5.842-9.746 106.34 106.34 0 0 1 3.505-6.08 6.628 6.628 0 1 1 11.258 6.998 92.221 92.221 0 0 0-3.066 5.317 6.634 6.634 0 0 1-5.855 3.511zm17.418-23.838a6.598 6.598 0 0 1-4.566-1.826 6.627 6.627 0 0 1-.235-9.37 136.08 136.08 0 0 1 4.898-4.89 6.626 6.626 0 0 1 9.369.249 6.627 6.627 0 0 1-.249 9.369 121.506 121.506 0 0 0-4.415 4.406 6.605 6.605 0 0 1-4.802 2.062zm22.572-19.08a6.628 6.628 0 0 1-3.765-12.086l1.125-.769a142.884 142.884 0 0 1 4.64-3.007 6.628 6.628 0 0 1 9.127 2.134 6.628 6.628 0 0 1-2.133 9.128c-1.426.886-5.242 3.433-5.242 3.433a6.607 6.607 0 0 1-3.752 1.167zm176.67-13.409c-.888 0-1.79-.18-2.655-.558a153.136 153.136 0 0 0-5.834-2.411 6.63 6.63 0 0 1-3.769-8.583 6.63 6.63 0 0 1 8.583-3.769c2.135.832 4.267 1.714 6.336 2.619a6.627 6.627 0 0 1 3.413 8.729 6.626 6.626 0 0 1-6.074 3.973zm-150.724-.738a6.629 6.629 0 0 1-2.59-12.731 173.003 173.003 0 0 1 6.354-2.543 6.629 6.629 0 0 1 4.682 12.402 156.305 156.305 0 0 0-5.863 2.347 6.632 6.632 0 0 1-2.583.525zm122.694-8.698a6.707 6.707 0 0 1-1.591-.193 184.32 184.32 0 0 0-6.195-1.413 6.627 6.627 0 1 1 2.726-12.972c2.223.467 4.458.977 6.641 1.515a6.628 6.628 0 0 1-1.581 13.063zm-94.575-.435a6.63 6.63 0 0 1-1.516-13.079 200.5 200.5 0 0 1 6.651-1.448 6.628 6.628 0 1 1 2.599 12.998c-2.077.415-4.166.871-6.208 1.352a6.766 6.766 0 0 1-1.526.177zm65.393-4.438c-.205 0-.409-.01-.615-.028-2.112-.195-4.23-.355-6.352-.482a6.625 6.625 0 0 1-6.219-7.011c.218-3.654 3.376-6.427 7.011-6.22 2.262.136 4.521.306 6.773.513a6.628 6.628 0 0 1-.598 13.228zm-36.167-.161a6.629 6.629 0 0 1-.539-13.234 212.16 212.16 0 0 1 6.778-.452c3.635-.198 6.768 2.628 6.954 6.286a6.628 6.628 0 0 1-6.286 6.953c-2.121.106-4.242.249-6.356.423a6.38 6.38 0 0 1-.551.024zm259.208 171.203a6.629 6.629 0 0 1-3.61-12.19c.889-.576 1.771-1.159 2.646-1.751a6.625 6.625 0 0 1 9.203 1.774 6.627 6.627 0 0 1-1.774 9.204c-.946.641-1.903 1.273-2.866 1.898a6.612 6.612 0 0 1-3.599 1.065zm-115.652 32.91a6.627 6.627 0 0 1-.158-13.253c2.197-.054 4.396-.134 6.591-.243a6.628 6.628 0 0 1 .656 13.239c-2.307.114-4.614.2-6.924.257h-.165zm-23.649-.497c-.149 0-.301-.006-.451-.016a257.452 257.452 0 0 1-6.922-.558 6.63 6.63 0 0 1-5.975-7.224c.345-3.645 3.598-6.302 7.223-5.975 2.184.206 4.372.383 6.564.529a6.631 6.631 0 0 1 6.17 7.058 6.632 6.632 0 0 1-6.609 6.186zm53.96-1.99a6.628 6.628 0 0 1-.921-13.19c2.176-.309 4.344-.645 6.506-1.011a6.633 6.633 0 0 1 7.641 5.429 6.63 6.63 0 0 1-5.43 7.641c-2.277.385-4.564.74-6.857 1.064a6.684 6.684 0 0 1-.939.067zm-84.132-1.883c-.414 0-.834-.038-1.256-.12-2.28-.437-4.551-.905-6.81-1.406a6.627 6.627 0 1 1 2.865-12.941c2.137.473 4.284.916 6.442 1.33a6.627 6.627 0 0 1 5.26 7.758 6.626 6.626 0 0 1-6.501 5.379zm113.927-4.225a6.63 6.63 0 0 1-1.739-13.025 221.8 221.8 0 0 0 6.305-1.821 6.627 6.627 0 0 1 3.869 12.677c-2.215.676-4.443 1.32-6.688 1.932a6.602 6.602 0 0 1-1.747.237zm-143.372-3.424c-.694 0-1.4-.111-2.097-.342a212.327 212.327 0 0 1-6.583-2.31 6.629 6.629 0 0 1 4.586-12.437c2.045.756 4.109 1.477 6.189 2.17a6.629 6.629 0 0 1-2.095 12.919zm172.086-6.593a6.63 6.63 0 0 1-2.635-12.713 187.039 187.039 0 0 0 5.945-2.698 6.628 6.628 0 1 1 5.687 11.974 198.3 198.3 0 0 1-6.37 2.89 6.598 6.598 0 0 1-2.627.547zm-200.162-5.105a6.59 6.59 0 0 1-3.006-.726 192.43 192.43 0 0 1-6.187-3.3 6.63 6.63 0 0 1-2.56-9.018 6.631 6.631 0 0 1 9.017-2.56 176.709 176.709 0 0 0 5.752 3.069 6.628 6.628 0 0 1 2.891 8.916 6.62 6.62 0 0 1-5.907 3.619zm-25.754-16.138a6.597 6.597 0 0 1-4.079-1.408 120.839 120.839 0 0 1-5.502-4.569 6.626 6.626 0 0 1-.586-9.354 6.626 6.626 0 0 1 9.354-.586 107.8 107.8 0 0 0 4.901 4.069 6.626 6.626 0 0 1 1.136 9.303 6.609 6.609 0 0 1-5.224 2.545zm-20.958-21.889c-2.105 0-4.175-1-5.461-2.865a89.1 89.1 0 0 1-3.9-6.178 6.629 6.629 0 0 1 11.493-6.604 74.865 74.865 0 0 0 3.318 5.254 6.628 6.628 0 0 1-5.45 10.393zm-11.963-27.746a6.632 6.632 0 0 1-6.499-5.363 72.725 72.725 0 0 1-1.045-7.366 6.628 6.628 0 0 1 6.01-7.194c3.64-.334 6.866 2.363 7.193 6.01a59.72 59.72 0 0 0 .854 6.02 6.627 6.627 0 0 1-6.513 7.893zm1.228-30.126a6.628 6.628 0 0 1-6.391-8.401 76.405 76.405 0 0 1 2.325-7.027 6.625 6.625 0 0 1 8.566-3.804 6.626 6.626 0 0 1 3.804 8.566 63.022 63.022 0 0 0-1.921 5.808 6.632 6.632 0 0 1-6.383 4.858zm13.862-26.864a6.627 6.627 0 0 1-5.213-10.714 101.738 101.738 0 0 1 4.666-5.531 6.626 6.626 0 0 1 9.361-.46 6.629 6.629 0 0 1 .46 9.361 87.567 87.567 0 0 0-4.052 4.803 6.612 6.612 0 0 1-5.222 2.541zm85.487 43.073a6.629 6.629 0 0 1-.287-13.25 69.95 69.95 0 0 0 6.023-.529c3.629-.472 6.96 2.069 7.441 5.698a6.628 6.628 0 0 1-5.699 7.441 82.409 82.409 0 0 1-7.18.631c-.1.006-.199.009-.298.009zm-22.956-2.53a6.672 6.672 0 0 1-1.773-.242 70.353 70.353 0 0 1-6.939-2.311 6.629 6.629 0 0 1 4.846-12.338 57.117 57.117 0 0 0 5.629 1.873 6.63 6.63 0 0 1-1.763 13.018zm51.597-4.92a6.63 6.63 0 0 1-5.847-3.498 6.625 6.625 0 0 1 2.708-8.972 44.51 44.51 0 0 0 4.88-3.038 6.628 6.628 0 1 1 7.748 10.756 57.72 57.72 0 0 1-6.364 3.962 6.574 6.574 0 0 1-3.125.79zm-76.852-10.113a6.613 6.613 0 0 1-5.072-2.357 37.775 37.775 0 0 1-4.504-6.641 6.627 6.627 0 0 1 2.757-8.957 6.625 6.625 0 0 1 8.958 2.758 24.49 24.49 0 0 0 2.929 4.301 6.629 6.629 0 0 1-5.068 10.896zm95.791-11.769a6.627 6.627 0 0 1-6.458-8.142 17.54 17.54 0 0 0 .448-4.766 6.627 6.627 0 1 1 13.241-.596 30.755 30.755 0 0 1-.785 8.385 6.627 6.627 0 0 1-6.446 5.119zM200.807 246.09a6.628 6.628 0 0 1-6.001-9.435 36.732 36.732 0 0 1 4.223-6.883 6.629 6.629 0 0 1 10.488 8.106 23.444 23.444 0 0 0-2.701 4.387 6.627 6.627 0 0 1-6.009 3.825zm90.302-10.551a6.597 6.597 0 0 1-4.404-1.678 37.635 37.635 0 0 0-3.941-3.05 45.423 45.423 0 0 0-4.984-2.917 6.627 6.627 0 1 1 5.962-11.838 58.726 58.726 0 0 1 6.45 3.774 50.908 50.908 0 0 1 5.328 4.13 6.625 6.625 0 0 1 .542 9.356 6.607 6.607 0 0 1-4.953 2.223zm-68.282-8.585a6.628 6.628 0 0 1-2.568-12.74c2.21-.928 4.53-1.76 6.896-2.47a6.628 6.628 0 1 1 3.814 12.696 56.437 56.437 0 0 0-5.58 1.996 6.6 6.6 0 0 1-2.562.518zm35.767-4.744c-.248 0-.502-.015-.754-.043a69.953 69.953 0 0 0-6.036-.418 6.627 6.627 0 0 1-6.453-6.797c.094-3.658 3.083-6.584 6.798-6.453a82.52 82.52 0 0 1 7.184.499 6.63 6.63 0 0 1 5.84 7.332 6.633 6.633 0 0 1-6.579 5.88z"/></svg>