<?xml version="1.0" encoding="utf-8"?>
<!-- Generator: Adobe Illustrator 16.0.0, SVG Export Plug-In . SVG Version: 6.00 Build 0)  -->
<!DOCTYPE svg PUBLIC "-//W3C//DTD SVG 1.1//EN" "http://www.w3.org/Graphics/SVG/1.1/DTD/svg11.dtd">
<svg version="1.1" id="Capa_1" xmlns="http://www.w3.org/2000/svg" xmlns:xlink="http://www.w3.org/1999/xlink" x="0px" y="0px"
	 width="500px" height="500px" viewBox="0 0 500 500" enable-background="new 0 0 500 500" xml:space="preserve">
<g>
	<path d="M493.31,241.641c-0.092,0-0.182-0.001-0.272-0.005c-3.657-0.148-6.503-3.233-6.355-6.89c0.04-1.01,0.062-2.025,0.062-3.043
		c0-3.66,2.967-6.627,6.627-6.627s6.627,2.967,6.627,6.627c0,1.197-0.024,2.39-0.073,3.579
		C499.783,238.848,496.846,241.641,493.31,241.641z"/>
	<path d="M314.418,357.175c-0.035,0-0.07,0-0.104-0.001c-2.307-0.036-4.6-0.107-6.879-0.216c-3.655-0.173-6.479-3.276-6.308-6.935
		c0.172-3.655,3.264-6.484,6.934-6.307c2.14,0.1,4.292,0.168,6.457,0.201c3.66,0.057,6.58,3.069,6.523,6.729
		C320.986,354.275,318.029,357.175,314.418,357.175z M337.741,356.432c-3.432,0-6.336-2.646-6.601-6.125
		c-0.278-3.649,2.454-6.834,6.104-7.111c2.169-0.166,4.324-0.359,6.468-0.582c3.627-0.371,6.897,2.271,7.274,5.911
		c0.376,3.642-2.271,6.897-5.911,7.274c-2.261,0.233-4.535,0.438-6.822,0.611C338.081,356.426,337.91,356.432,337.741,356.432z
		 M284.545,354.539c-0.357,0-0.717-0.027-1.078-0.088c-2.275-0.372-4.561-0.785-6.788-1.23c-3.589-0.715-5.921-4.204-5.206-7.793
		c0.713-3.592,4.211-5.922,7.793-5.207c2.082,0.414,4.216,0.801,6.342,1.148c3.612,0.59,6.062,3.998,5.471,7.611
		C290.544,352.231,287.732,354.539,284.545,354.539z M367.469,352.359c-3.096,0-5.864-2.182-6.493-5.334
		c-0.714-3.59,1.616-7.08,5.205-7.795c2.131-0.425,4.244-0.879,6.34-1.357c3.567-0.821,7.123,1.414,7.938,4.98
		c0.817,3.568-1.414,7.123-4.98,7.939c-2.217,0.508-4.453,0.986-6.709,1.436C368.333,352.318,367.897,352.359,367.469,352.359z
		 M255.411,347.38c-0.698,0-1.409-0.11-2.106-0.344c-2.191-0.735-4.387-1.518-6.526-2.327c-3.423-1.297-5.147-5.124-3.851-8.546
		c1.296-3.424,5.127-5.148,8.545-3.851c1.98,0.75,4.013,1.475,6.042,2.154c3.47,1.162,5.342,4.92,4.179,8.39
		C260.767,345.627,258.182,347.38,255.411,347.38z M396.461,344.611c-2.76,0-5.336-1.736-6.274-4.494
		c-1.178-3.467,0.676-7.231,4.141-8.408c2.056-0.699,4.086-1.424,6.09-2.176c3.428-1.285,7.247,0.451,8.533,3.878
		c1.285,3.428-0.451,7.248-3.878,8.533c-2.133,0.8-4.292,1.571-6.477,2.315C397.889,344.497,397.169,344.611,396.461,344.611z
		 M227.962,335.308c-1.1,0-2.214-0.274-3.24-0.851c-2.042-1.146-4.066-2.347-6.011-3.565c-3.102-1.944-4.04-6.034-2.097-9.136
		s6.034-4.04,9.136-2.097c1.767,1.106,3.604,2.198,5.462,3.241c3.191,1.793,4.326,5.832,2.534,9.023
		C232.532,334.09,230.28,335.308,227.962,335.308z M424.095,332.929c-2.401,0-4.72-1.31-5.896-3.591
		c-1.68-3.254-0.401-7.25,2.851-8.928c1.916-0.988,3.82-2.016,5.661-3.051c3.188-1.795,7.231-0.666,9.027,2.525
		c1.795,3.189,0.664,7.23-2.525,9.026c-1.98,1.115-4.029,2.218-6.086,3.28C426.155,332.691,425.118,332.929,424.095,332.929z
		 M203.702,317.752c-1.623,0-3.249-0.593-4.527-1.79c-1.743-1.632-3.433-3.318-5.024-5.01c-2.506-2.667-2.376-6.862,0.293-9.369
		c2.668-2.506,6.863-2.374,9.369,0.293c1.396,1.487,2.884,2.972,4.421,4.41c2.673,2.503,2.81,6.696,0.308,9.368
		C207.236,317.047,205.472,317.752,203.702,317.752z M449.465,316.95c-1.99,0-3.958-0.893-5.263-2.593
		c-2.229-2.905-1.681-7.065,1.223-9.293c1.703-1.307,3.375-2.65,4.969-3.992c2.802-2.354,6.982-1.995,9.339,0.805
		c2.356,2.802,1.996,6.982-0.805,9.339c-1.747,1.47-3.574,2.937-5.433,4.363C452.291,316.504,450.872,316.95,449.465,316.95z
		 M471.125,296.266c-1.485,0-2.981-0.498-4.218-1.519c-2.822-2.331-3.219-6.509-0.888-9.331c1.345-1.628,2.643-3.295,3.856-4.953
		c2.163-2.953,6.308-3.595,9.263-1.435c2.953,2.161,3.596,6.31,1.435,9.263c-1.367,1.865-2.825,3.74-4.336,5.568
		C474.928,295.446,473.034,296.266,471.125,296.266z M185.345,294.189c-2.375,0-4.673-1.281-5.863-3.525
		c-1.138-2.147-2.185-4.354-3.11-6.557c-1.418-3.375,0.169-7.26,3.544-8.678s7.26,0.168,8.678,3.543
		c0.772,1.84,1.647,3.686,2.603,5.484c1.714,3.234,0.481,7.246-2.753,8.961C187.455,293.941,186.392,294.189,185.345,294.189z
		 M486.747,270.773c-0.853,0-1.721-0.166-2.556-0.516c-3.376-1.413-4.969-5.295-3.556-8.673c0.794-1.897,1.522-3.841,2.165-5.773
		c1.154-3.472,4.905-5.353,8.38-4.197c3.474,1.154,5.353,4.906,4.197,8.38c-0.746,2.247-1.594,4.503-2.516,6.707
		C491.802,269.242,489.339,270.773,486.747,270.773z"/>
	<path d="M226.275,91.981c-0.028,0-0.055,0-0.084-0.001c-1.074-0.013-2.152-0.02-3.232-0.02c-3.66,0-6.627-2.967-6.627-6.627
		c0-3.66,2.967-6.627,6.627-6.627c1.136,0,2.268,0.007,3.398,0.021c3.66,0.046,6.59,3.049,6.544,6.71
		C232.855,89.068,229.896,91.981,226.275,91.981z"/>
	<path d="M284.832,304.206c-3.28,0-6.13-2.435-6.564-5.772c-0.473-3.63,2.088-6.955,5.717-7.428c2.13-0.278,4.276-0.595,6.379-0.939
		c3.617-0.592,7.021,1.85,7.616,5.461c0.596,3.611-1.851,7.023-5.462,7.617c-2.25,0.371-4.546,0.709-6.822,1.006
		C285.405,304.188,285.116,304.206,284.832,304.206z M314.191,298.049c-2.862,0-5.503-1.869-6.354-4.754
		c-1.035-3.512,0.97-7.197,4.48-8.232c2.057-0.607,4.119-1.258,6.128-1.932c3.47-1.167,7.228,0.701,8.394,4.171
		c1.167,3.469-0.702,7.227-4.171,8.394c-2.164,0.727-4.384,1.428-6.598,2.081C315.444,297.962,314.812,298.049,314.191,298.049z
		 M342.104,287.078c-2.423,0-4.756-1.333-5.923-3.644c-1.648-3.268-0.337-7.253,2.932-8.903c1.899-0.958,3.788-1.966,5.617-2.996
		c3.191-1.801,7.23-0.67,9.027,2.52c1.798,3.188,0.671,7.23-2.52,9.027c-2.005,1.131-4.075,2.234-6.153,3.285
		C344.127,286.848,343.106,287.078,342.104,287.078z M367.227,270.762c-1.898,0-3.786-0.812-5.097-2.387
		c-2.343-2.812-1.96-6.992,0.854-9.334c1.621-1.348,3.2-2.746,4.697-4.152c2.669-2.508,6.862-2.376,9.369,0.29
		c2.508,2.667,2.377,6.862-0.29,9.369c-1.69,1.589-3.474,3.165-5.296,4.683C370.225,270.259,368.723,270.762,367.227,270.762z
		 M387.176,248.502c-1.22,0-2.455-0.337-3.56-1.043c-3.085-1.97-3.989-6.068-2.02-9.152c1.104-1.729,2.138-3.506,3.072-5.281
		c1.704-3.238,5.711-4.482,8.952-2.778c3.238,1.704,4.482,5.712,2.778,8.952c-1.106,2.101-2.328,4.2-3.631,6.242
		C391.504,247.421,389.362,248.502,387.176,248.502z M397.9,220.717c-0.333,0-0.669-0.025-1.008-0.077
		c-3.618-0.552-6.104-3.934-5.552-7.552c0.301-1.974,0.503-3.979,0.603-5.964c0.183-3.657,3.3-6.464,6.947-6.292
		c3.656,0.181,6.473,3.292,6.292,6.948c-0.12,2.433-0.369,4.89-0.738,7.307C403.944,218.368,401.12,220.717,397.9,220.717z
		 M396.191,190.954c-2.973,0-5.675-2.014-6.427-5.028c-0.491-1.975-1.069-3.962-1.718-5.907c-1.158-3.472,0.719-7.226,4.19-8.384
		c3.468-1.16,7.226,0.717,8.384,4.19c0.756,2.268,1.433,4.589,2.007,6.897c0.885,3.552-1.276,7.148-4.829,8.033
		C397.26,190.89,396.723,190.954,396.191,190.954z M384.226,163.587c-2.186,0-4.323-1.078-5.588-3.055
		c-1.105-1.728-2.296-3.46-3.537-5.154c-2.164-2.951-1.524-7.1,1.428-9.264c2.951-2.164,7.101-1.526,9.265,1.428
		c1.404,1.916,2.753,3.881,4.01,5.841c1.974,3.082,1.075,7.182-2.007,9.156C386.688,163.248,385.448,163.587,384.226,163.587z
		 M364.872,140.745c-1.61,0-3.225-0.583-4.5-1.764c-1.534-1.419-3.138-2.833-4.766-4.2c-2.803-2.355-3.165-6.536-0.812-9.337
		c2.354-2.802,6.535-3.165,9.338-0.812c1.788,1.504,3.552,3.059,5.24,4.622c2.688,2.486,2.849,6.68,0.362,9.365
		C368.433,140.03,366.655,140.745,364.872,140.745z M340.907,122.736c-1.182,0-2.378-0.315-3.459-0.98
		c-1.791-1.099-3.654-2.192-5.535-3.251c-3.191-1.794-4.323-5.835-2.528-9.025c1.793-3.19,5.836-4.322,9.025-2.529
		c2.027,1.14,4.036,2.32,5.971,3.508c3.121,1.914,4.098,5.996,2.183,9.115C345.312,121.612,343.136,122.736,340.907,122.736z
		 M314.146,109.207c-0.839,0-1.693-0.16-2.518-0.499c-1.979-0.813-3.985-1.602-6.016-2.364c-3.428-1.285-5.165-5.104-3.88-8.532
		c1.285-3.427,5.104-5.166,8.532-3.879c2.161,0.81,4.295,1.65,6.402,2.516c3.385,1.39,5.002,5.263,3.612,8.649
		C319.227,107.659,316.754,109.207,314.146,109.207z M285.679,99.759c-0.548,0-1.106-0.069-1.664-0.213
		c-2.081-0.538-4.183-1.049-6.301-1.533c-3.568-0.815-5.801-4.37-4.985-7.938s4.367-5.796,7.938-4.985
		c2.242,0.513,4.463,1.053,6.664,1.623c3.544,0.915,5.674,4.531,4.759,8.076C291.319,97.777,288.629,99.759,285.679,99.759z
		 M256.217,94.088c-0.283,0-0.57-0.018-0.861-0.055c-2.137-0.278-4.287-0.528-6.453-0.75c-3.642-0.376-6.289-3.631-5.914-7.271
		c0.375-3.642,3.632-6.289,7.271-5.914c2.281,0.235,4.55,0.499,6.801,0.791c3.631,0.471,6.191,3.796,5.721,7.426
		C262.348,91.653,259.498,94.088,256.217,94.088z"/>
	<path d="M6.627,274.925c-3.66,0-6.627-2.968-6.627-6.627c0-1.2,0.025-2.394,0.073-3.584c0.151-3.657,3.237-6.483,6.896-6.35
		c3.657,0.151,6.5,3.238,6.349,6.896c-0.042,1.01-0.062,2.021-0.062,3.039C13.256,271.956,10.289,274.925,6.627,274.925z"/>
	<path d="M10.91,248.726c-0.694,0-1.398-0.109-2.092-0.34c-3.473-1.154-5.353-4.906-4.197-8.38c0.746-2.247,1.593-4.503,2.515-6.707
		c1.414-3.376,5.296-4.97,8.673-3.556c3.376,1.413,4.969,5.294,3.556,8.672c-0.795,1.898-1.523,3.841-2.166,5.773
		C16.274,246.966,13.687,248.726,10.91,248.726z M317.52,225.089c-2.589,0-5.049-1.526-6.114-4.062
		c-0.772-1.839-1.647-3.685-2.603-5.484c-1.714-3.234-0.48-7.247,2.753-8.96c3.237-1.709,7.247-0.481,8.961,2.753
		c1.137,2.147,2.185,4.355,3.109,6.557c1.418,3.375-0.169,7.26-3.544,8.678C319.244,224.922,318.374,225.089,317.52,225.089z
		 M24.769,222.251c-1.358,0-2.728-0.416-3.909-1.28c-2.953-2.162-3.596-6.309-1.435-9.263c1.373-1.874,2.831-3.749,4.337-5.57
		c2.332-2.821,6.509-3.219,9.331-0.886c2.822,2.332,3.219,6.51,0.886,9.331c-1.341,1.622-2.637,3.288-3.856,4.954
		C28.824,221.311,26.81,222.251,24.769,222.251z M45.34,200.482c-1.888,0-3.764-0.803-5.075-2.36
		c-2.356-2.802-1.996-6.982,0.805-9.339c1.747-1.469,3.574-2.937,5.433-4.363c2.904-2.229,7.065-1.681,9.293,1.223
		c2.228,2.905,1.681,7.065-1.223,9.293c-1.703,1.306-3.375,2.649-4.969,3.992C48.361,199.971,46.846,200.482,45.34,200.482z
		 M301.02,200.212c-1.768,0-3.527-0.702-4.832-2.089c-1.398-1.487-2.885-2.972-4.422-4.411c-2.673-2.503-2.81-6.696-0.309-9.368
		c2.504-2.672,6.697-2.81,9.368-0.308c1.743,1.632,3.433,3.318,5.024,5.01c2.506,2.667,2.374,6.862-0.293,9.37
		C304.276,199.617,302.646,200.212,301.02,200.212z M70.043,183.493c-2.316,0-4.565-1.215-5.783-3.378
		c-1.795-3.189-0.665-7.231,2.525-9.026c1.98-1.115,4.029-2.218,6.085-3.28c3.258-1.679,7.252-0.401,8.929,2.852
		c1.679,3.253,0.401,7.25-2.852,8.928c-1.916,0.988-3.82,2.015-5.661,3.05C72.26,183.22,71.144,183.493,70.043,183.493z
		 M277.761,181.353c-1.202,0-2.419-0.326-3.513-1.012c-1.767-1.107-3.605-2.198-5.463-3.241c-3.191-1.792-4.326-5.833-2.533-9.023
		c1.793-3.193,5.834-4.325,9.023-2.534c2.043,1.147,4.066,2.347,6.012,3.566c3.102,1.944,4.039,6.034,2.096,9.136
		C282.127,180.25,279.969,181.353,277.761,181.353z M97.257,170.891c-2.683,0-5.209-1.642-6.206-4.301
		c-1.285-3.428,0.451-7.248,3.878-8.533c2.132-0.8,4.292-1.571,6.477-2.315c3.463-1.178,7.229,0.674,8.409,4.141
		c1.177,3.466-0.676,7.231-4.141,8.409c-2.055,0.698-4.085,1.424-6.089,2.175C98.816,170.756,98.03,170.891,97.257,170.891z
		 M250.872,168.119c-0.781,0-1.574-0.138-2.347-0.431c-1.979-0.75-4.012-1.475-6.042-2.155c-3.47-1.162-5.342-4.919-4.179-8.389
		c1.162-3.472,4.92-5.342,8.389-4.18c2.191,0.735,4.386,1.518,6.527,2.328c3.423,1.296,5.146,5.124,3.85,8.545
		C256.067,166.488,253.547,168.119,250.872,168.119z M125.994,162.293c-3.021,0-5.752-2.08-6.454-5.151
		c-0.817-3.568,1.414-7.124,4.981-7.939c2.217-0.508,4.453-0.986,6.708-1.436c3.585-0.716,7.079,1.614,7.795,5.205
		c0.714,3.589-1.616,7.079-5.205,7.795c-2.131,0.424-4.245,0.877-6.34,1.357C126.98,162.239,126.483,162.293,125.994,162.293z
		 M222.035,159.906c-0.43,0-0.864-0.042-1.301-0.13c-2.082-0.415-4.215-0.8-6.341-1.148c-3.613-0.59-6.062-3.999-5.471-7.611
		c0.592-3.613,4-6.07,7.611-5.47c2.275,0.372,4.56,0.785,6.788,1.23c3.589,0.714,5.921,4.204,5.207,7.793
		C227.9,157.724,225.132,159.906,222.035,159.906z M155.597,157.42c-3.354,0-6.232-2.538-6.584-5.947
		c-0.376-3.642,2.271-6.898,5.913-7.274c2.26-0.233,4.533-0.438,6.821-0.612c3.65-0.264,6.834,2.455,7.112,6.105
		c0.278,3.65-2.455,6.834-6.105,7.112c-2.168,0.166-4.325,0.359-6.468,0.582C156.056,157.408,155.825,157.42,155.597,157.42z
		 M192.256,156.288c-0.105,0-0.211-0.003-0.318-0.007c-2.14-0.101-4.292-0.169-6.457-0.202c-3.66-0.057-6.581-3.071-6.524-6.729
		c0.058-3.661,3.153-6.566,6.729-6.523c2.307,0.036,4.6,0.108,6.879,0.216c3.656,0.173,6.479,3.277,6.308,6.934
		C198.703,153.522,195.772,156.288,192.256,156.288z"/>
	<path d="M277.042,421.295c-1.138,0-2.272-0.007-3.402-0.022c-3.66-0.048-6.589-3.054-6.54-6.714c0.048-3.631,3.006-6.54,6.625-6.54
		c0.031,0,0.061,0,0.089,0.001c1.073,0.014,2.149,0.021,3.229,0.021c3.66,0,6.628,2.967,6.628,6.627
		C283.67,418.327,280.702,421.295,277.042,421.295z"/>
	<path d="M250.426,419.939c-0.227,0-0.456-0.013-0.687-0.036c-2.282-0.235-4.55-0.499-6.801-0.791
		c-3.631-0.471-6.19-3.797-5.721-7.426c0.472-3.63,3.792-6.187,7.426-5.721c2.137,0.278,4.289,0.528,6.453,0.751
		c3.643,0.376,6.289,3.631,5.914,7.271C256.659,417.4,253.78,419.939,250.426,419.939z M220.814,415.077
		c-0.489,0-0.985-0.056-1.481-0.169c-2.242-0.513-4.463-1.053-6.665-1.623c-3.543-0.914-5.673-4.53-4.758-8.075
		c0.916-3.545,4.529-5.678,8.075-4.759c2.082,0.538,4.183,1.049,6.301,1.533c3.568,0.815,5.801,4.37,4.985,7.938
		C226.568,412.995,223.837,415.077,220.814,415.077z M192.061,406.49c-0.773,0-1.559-0.136-2.325-0.424
		c-2.162-0.81-4.296-1.648-6.403-2.515c-3.385-1.391-5.002-5.264-3.611-8.649c1.39-3.387,5.262-5.002,8.649-3.611
		c1.979,0.814,3.986,1.602,6.017,2.363c3.427,1.285,5.165,5.104,3.879,8.531C197.27,404.848,194.744,406.49,192.061,406.49z
		 M164.831,393.897c-1.1,0-2.215-0.273-3.242-0.852c-2.027-1.14-4.036-2.32-5.971-3.508c-3.121-1.914-4.098-5.995-2.182-9.114
		c1.916-3.121,5.997-4.098,9.115-2.183c1.791,1.099,3.654,2.192,5.535,3.251c3.191,1.793,4.323,5.835,2.528,9.024
		C169.398,392.682,167.148,393.897,164.831,393.897z M140.125,376.92c-1.505,0-3.017-0.51-4.261-1.554
		c-1.789-1.504-3.552-3.059-5.241-4.622c-2.687-2.486-2.848-6.68-0.362-9.365c2.486-2.688,6.68-2.848,9.365-0.361
		c1.534,1.419,3.137,2.833,4.765,4.199c2.803,2.355,3.165,6.537,0.812,9.338C143.894,376.117,142.017,376.92,140.125,376.92z
		 M119.559,355.167c-2.04,0-4.052-0.938-5.352-2.71c-1.404-1.916-2.753-3.881-4.009-5.842c-1.974-3.082-1.075-7.181,2.007-9.156
		c3.083-1.975,7.181-1.074,9.156,2.008c1.106,1.727,2.296,3.46,3.537,5.153c2.164,2.95,1.524,7.1-1.428,9.265
		C122.29,354.75,120.918,355.167,119.559,355.167z M105.663,328.705c-2.775,0-5.361-1.756-6.286-4.533
		c-0.756-2.268-1.432-4.589-2.007-6.896c-0.885-3.553,1.277-7.148,4.829-8.033c3.552-0.887,7.148,1.279,8.033,4.829
		c0.492,1.976,1.069,3.963,1.718,5.907c1.158,3.472-0.719,7.226-4.19,8.384C107.066,328.595,106.358,328.705,105.663,328.705z
		 M101.443,299.172c-0.11,0-0.223-0.002-0.334-0.008c-3.656-0.182-6.472-3.292-6.291-6.947c0.12-2.434,0.369-4.891,0.738-7.308
		c0.551-3.618,3.935-6.106,7.552-5.552c3.619,0.551,6.105,3.934,5.552,7.552c-0.301,1.974-0.503,3.979-0.603,5.964
		C107.88,296.418,104.951,299.172,101.443,299.172z M109.461,270.516c-1.041,0-2.097-0.246-3.082-0.764
		c-3.238-1.705-4.482-5.713-2.778-8.952c1.105-2.101,2.327-4.2,3.63-6.241c1.97-3.084,6.07-3.989,9.152-2.02
		c3.085,1.969,3.989,6.067,2.02,9.152c-1.104,1.729-2.138,3.506-3.073,5.281C114.145,269.228,111.842,270.516,109.461,270.516z
		 M127.779,246.911c-1.765,0-3.527-0.701-4.831-2.088c-2.507-2.667-2.377-6.862,0.291-9.37c1.69-1.589,3.473-3.165,5.296-4.682
		c2.811-2.341,6.992-1.96,9.333,0.854c2.343,2.812,1.96,6.992-0.854,9.333c-1.621,1.349-3.201,2.746-4.698,4.153
		C131.039,246.315,129.406,246.911,127.779,246.911z M152.023,229.32c-2.315,0-4.562-1.215-5.78-3.374
		c-1.798-3.19-0.67-7.231,2.52-9.028c2.005-1.13,4.076-2.235,6.153-3.285c3.27-1.652,7.253-0.337,8.903,2.932
		c1.649,3.267,0.337,7.253-2.931,8.903c-1.899,0.958-3.789,1.965-5.617,2.996C154.241,229.044,153.125,229.32,152.023,229.32z
		 M179.442,217.217c-2.769,0-5.352-1.749-6.282-4.519c-1.167-3.469,0.702-7.227,4.171-8.393c2.164-0.727,4.384-1.428,6.598-2.082
		c3.508-1.037,7.195,0.97,8.231,4.48c1.035,3.511-0.97,7.197-4.48,8.232c-2.057,0.607-4.119,1.258-6.128,1.932
		C180.854,217.104,180.142,217.217,179.442,217.217z M208.551,210.022c-3.187,0-5.997-2.304-6.532-5.55
		c-0.596-3.611,1.851-7.022,5.462-7.617c2.25-0.371,4.546-0.709,6.822-1.006c3.624-0.461,6.955,2.088,7.427,5.718
		s-2.087,6.955-5.716,7.427c-2.13,0.278-4.276,0.595-6.378,0.94C209.272,209.994,208.909,210.022,208.551,210.022z"/>
	<path d="M405.692,129.141c-1.323,0-2.656-0.395-3.817-1.215c-0.861-0.608-1.731-1.21-2.616-1.808
		c-3.034-2.05-3.831-6.17-1.783-9.202c2.05-3.035,6.171-3.83,9.202-1.783c0.961,0.649,1.908,1.305,2.845,1.965
		c2.99,2.112,3.701,6.247,1.589,9.236C409.82,128.164,407.772,129.141,405.692,129.141z"/>
	<path d="M314.138,322.945c-3.505,0-6.434-2.75-6.613-6.291c-0.187-3.655,2.626-6.77,6.281-6.955
		c2.123-0.107,4.243-0.248,6.358-0.424c3.641-0.305,6.85,2.412,7.15,6.059c0.302,3.648-2.411,6.851-6.059,7.152
		c-2.253,0.186-4.513,0.336-6.776,0.451C314.366,322.943,314.251,322.945,314.138,322.945z M291.129,322.84
		c-0.135,0-0.269-0.004-0.402-0.013c-2.263-0.136-4.522-0.308-6.777-0.515c-3.645-0.336-6.326-3.564-5.989-7.209
		c0.336-3.646,3.579-6.327,7.209-5.99c2.112,0.195,4.229,0.355,6.35,0.482c3.653,0.219,6.438,3.357,6.22,7.012
		C297.527,320.127,294.607,322.84,291.129,322.84z M343.502,319.314c-3.096,0-5.863-2.18-6.492-5.332
		c-0.717-3.589,1.613-7.08,5.201-7.796c2.069-0.413,4.157-0.868,6.206-1.352c3.556-0.837,7.131,1.365,7.972,4.929
		c0.84,3.562-1.365,7.131-4.929,7.972c-2.196,0.519-4.436,1.007-6.653,1.448C344.37,319.273,343.934,319.314,343.502,319.314z
		 M261.799,318.932c-0.451,0-0.909-0.047-1.368-0.143c-2.23-0.469-4.466-0.979-6.644-1.517c-3.554-0.876-5.724-4.468-4.846-8.022
		c0.876-3.555,4.464-5.726,8.023-4.846c2.028,0.5,4.111,0.975,6.191,1.412c3.582,0.752,5.877,4.266,5.123,7.849
		C267.623,316.787,264.867,318.932,261.799,318.932z M371.961,311.23c-2.679,0-5.201-1.637-6.203-4.292
		c-1.291-3.425,0.439-7.248,3.864-8.54c1.969-0.74,3.94-1.529,5.863-2.344c3.369-1.428,7.26,0.147,8.688,3.519
		s-0.149,7.261-3.519,8.688c-2.086,0.883-4.224,1.736-6.356,2.541C373.526,311.092,372.736,311.23,371.961,311.23z M233.42,310.543
		c-0.802,0-1.617-0.146-2.409-0.456c-2.124-0.829-4.252-1.71-6.329-2.618c-3.353-1.466-4.883-5.375-3.415-8.728
		c1.466-3.354,5.374-4.886,8.728-3.415c1.914,0.836,3.878,1.65,5.836,2.414c3.41,1.331,5.095,5.174,3.764,8.584
		C238.574,308.942,236.07,310.543,233.42,310.543z M398.523,298.246c-2.216,0-4.381-1.111-5.637-3.131
		c-1.931-3.11-0.976-7.195,2.135-9.128c1.433-0.892,2.846-1.807,4.234-2.745l1.012-0.692c3.016-2.071,7.145-1.306,9.216,1.711
		s1.306,7.144-1.711,9.216l-1.074,0.734c-1.546,1.046-3.104,2.055-4.684,3.036C400.926,297.924,399.716,298.246,398.523,298.246z
		 M421.921,280.195c-1.75,0-3.497-0.689-4.799-2.056c-2.524-2.651-2.423-6.846,0.227-9.37c1.521-1.449,3.004-2.935,4.408-4.418
		c2.518-2.658,6.713-2.77,9.369-0.253c2.657,2.519,2.77,6.713,0.253,9.37c-1.561,1.646-3.204,3.293-4.888,4.896
		C425.209,279.588,423.562,280.195,421.921,280.195z M440.639,257.365c-1.189,0-2.393-0.319-3.479-0.991
		c-3.114-1.925-4.077-6.009-2.152-9.123c1.078-1.744,2.106-3.537,3.055-5.324c1.713-3.234,5.726-4.467,8.959-2.752
		c3.233,1.714,4.467,5.725,2.752,8.959c-1.084,2.045-2.259,4.095-3.491,6.088C445.029,256.25,442.859,257.365,440.639,257.365z
		 M452.097,230.197c-0.511,0-1.03-0.06-1.548-0.184c-3.561-0.852-5.756-4.429-4.904-7.987c0.472-1.968,0.869-3.97,1.185-5.95
		c0.575-3.614,3.977-6.078,7.587-5.503c3.613,0.575,6.079,3.972,5.503,7.586c-0.367,2.316-0.835,4.655-1.384,6.952
		C457.809,228.152,455.092,230.197,452.097,230.197z M453.802,200.803c-3.293,0-6.147-2.452-6.567-5.804
		c-0.248-1.975-0.584-3.978-0.998-5.953c-0.752-3.582,1.541-7.096,5.123-7.849c3.586-0.752,7.096,1.542,7.85,5.124
		c0.489,2.329,0.886,4.693,1.177,7.028c0.456,3.632-2.12,6.945-5.751,7.4C454.354,200.785,454.075,200.803,453.802,200.803z
		 M445.013,172.684c-2.414,0-4.741-1.324-5.912-3.624c-0.911-1.789-1.907-3.593-2.966-5.365c-1.876-3.143-0.851-7.212,2.293-9.089
		c3.143-1.874,7.213-0.847,9.088,2.293c1.211,2.027,2.354,4.097,3.399,6.149c1.659,3.263,0.36,7.253-2.901,8.913
		C447.051,172.452,446.023,172.684,445.013,172.684z M428.004,148.557c-1.787,0-3.569-0.719-4.875-2.135
		c-1.394-1.511-2.855-3.017-4.347-4.478c-2.616-2.561-2.66-6.756-0.099-9.372c2.561-2.616,6.756-2.661,9.372-0.098
		c1.653,1.618,3.274,3.288,4.819,4.964c2.481,2.691,2.312,6.884-0.381,9.365C431.22,147.976,429.609,148.557,428.004,148.557z"/>
	<path d="M58.794,153.128c-2.127,0-4.215-1.021-5.495-2.916c-2.051-3.033-1.253-7.152,1.779-9.202
		c0.948-0.641,1.903-1.274,2.868-1.897c3.071-1.992,7.176-1.111,9.165,1.961c1.989,3.073,1.111,7.176-1.961,9.165
		c-0.89,0.577-1.772,1.161-2.646,1.753C61.364,152.759,60.072,153.128,58.794,153.128z"/>
	<path d="M327.746,270.045c-1.59,0-3.182-0.566-4.452-1.719c-2.712-2.459-2.915-6.65-0.456-9.361
		c1.418-1.562,2.781-3.178,4.051-4.801c2.258-2.881,6.423-3.387,9.305-1.132c2.882,2.257,3.389,6.423,1.132,9.304
		c-1.466,1.873-3.038,3.735-4.669,5.533C331.349,269.311,329.551,270.045,327.746,270.045z M343.855,244.436
		c-0.79,0-1.596-0.142-2.38-0.443c-3.416-1.316-5.119-5.151-3.804-8.566c0.737-1.912,1.384-3.867,1.923-5.811
		c0.981-3.527,4.637-5.588,8.161-4.61c3.527,0.979,5.591,4.634,4.611,8.161c-0.654,2.353-1.437,4.716-2.325,7.022
		C349.029,242.82,346.518,244.436,343.855,244.436z M348.143,214.585c-3.393,0-6.284-2.593-6.594-6.037
		c-0.181-2.007-0.467-4.031-0.854-6.019c-0.7-3.593,1.646-7.072,5.239-7.771c3.589-0.699,7.072,1.646,7.771,5.24
		c0.473,2.431,0.825,4.911,1.045,7.367c0.327,3.646-2.363,6.866-6.01,7.194C348.541,214.575,348.342,214.585,348.143,214.585z
		 M338.87,185.858c-2.297,0-4.53-1.195-5.755-3.329c-1.01-1.761-2.125-3.529-3.315-5.252c-2.079-3.013-1.321-7.141,1.691-9.218
		c3.013-2.079,7.142-1.32,9.219,1.691c1.396,2.025,2.709,4.105,3.901,6.181c1.822,3.176,0.726,7.226-2.448,9.047
		C341.122,185.575,339.988,185.858,338.87,185.858z M319.486,162.571c-1.558,0-3.122-0.546-4.381-1.657
		c-1.561-1.377-3.209-2.745-4.902-4.07c-2.883-2.257-3.391-6.421-1.135-9.305c2.257-2.881,6.421-3.39,9.304-1.134
		c1.896,1.484,3.747,3.021,5.501,4.569c2.745,2.422,3.008,6.611,0.586,9.354C323.149,161.812,321.322,162.571,319.486,162.571z
		 M294.495,145.302c-1.092,0-2.197-0.27-3.218-0.838c-1.881-1.046-3.816-2.079-5.758-3.066c-3.262-1.663-4.557-5.654-2.895-8.915
		c1.662-3.259,5.65-4.555,8.914-2.896c2.082,1.062,4.163,2.17,6.186,3.295c3.199,1.78,4.348,5.816,2.567,9.014
		C299.081,144.074,296.822,145.302,294.495,145.302z M82.223,139.801c-2.479,0-4.855-1.396-5.992-3.784
		c-1.571-3.306-0.164-7.26,3.14-8.832c2.093-0.994,4.235-1.967,6.369-2.891c3.355-1.453,7.26,0.088,8.715,3.447
		s-0.088,7.262-3.447,8.715c-1.992,0.863-3.992,1.771-5.946,2.699C84.144,139.595,83.175,139.801,82.223,139.801z M266.838,132.679
		c-0.76,0-1.533-0.131-2.287-0.409c-2.045-0.752-4.109-1.474-6.189-2.163c-3.475-1.154-5.354-4.905-4.201-8.38
		c1.154-3.475,4.905-5.352,8.38-4.202c2.212,0.735,4.429,1.511,6.587,2.304c3.436,1.263,5.195,5.072,3.932,8.508
		C272.074,131.019,269.537,132.679,266.838,132.679z M110.576,128.852c-2.837,0-5.462-1.835-6.335-4.689
		c-1.071-3.5,0.898-7.207,4.398-8.276c2.213-0.677,4.442-1.323,6.685-1.936c3.529-0.968,7.176,1.112,8.142,4.644
		c0.965,3.531-1.113,7.176-4.644,8.142c-2.116,0.579-4.218,1.188-6.305,1.826C111.872,128.759,111.219,128.852,110.576,128.852z
		 M237.64,124.176c-0.474,0-0.954-0.051-1.435-0.158c-2.138-0.471-4.286-0.914-6.444-1.327c-3.595-0.688-5.952-4.16-5.263-7.755
		c0.688-3.595,4.166-5.946,7.755-5.263c2.28,0.437,4.551,0.904,6.811,1.403c3.574,0.789,5.831,4.328,5.042,7.9
		C243.422,122.068,240.681,124.176,237.64,124.176z M140.171,121.882c-3.173,0-5.978-2.286-6.526-5.521
		c-0.612-3.608,1.817-7.031,5.428-7.642c2.277-0.386,4.566-0.742,6.86-1.067c3.624-0.511,6.979,2.008,7.491,5.633
		c0.513,3.624-2.008,6.979-5.633,7.491c-2.174,0.308-4.343,0.646-6.503,1.012C140.912,121.852,140.539,121.882,140.171,121.882z
		 M207.586,119.473c-0.21,0-0.421-0.011-0.634-0.031c-2.185-0.207-4.375-0.385-6.569-0.536c-3.651-0.25-6.409-3.414-6.158-7.066
		c0.25-3.652,3.4-6.413,7.066-6.159c2.31,0.159,4.614,0.347,6.915,0.565c3.645,0.346,6.318,3.58,5.972,7.225
		C213.851,116.901,210.964,119.473,207.586,119.473z M170.413,118.615c-3.513,0-6.442-2.76-6.613-6.307
		c-0.178-3.656,2.643-6.764,6.298-6.941c2.307-0.112,4.617-0.193,6.93-0.246c3.657-0.075,6.693,2.817,6.776,6.477
		c0.083,3.66-2.817,6.693-6.477,6.776c-2.196,0.05-4.392,0.127-6.587,0.234C170.63,118.612,170.521,118.615,170.413,118.615z"/>
	<path d="M97.025,386.003c-1.278,0-2.569-0.369-3.707-1.139c-0.959-0.648-1.906-1.304-2.838-1.963
		c-2.991-2.11-3.703-6.247-1.591-9.236c2.112-2.989,6.246-3.702,9.236-1.591c0.861,0.607,1.733,1.212,2.619,1.811
		c3.032,2.051,3.827,6.171,1.777,9.203C101.24,384.981,99.152,386.003,97.025,386.003z"/>
	<path d="M76.581,369.42c-1.672,0-3.346-0.629-4.636-1.892c-1.656-1.621-3.277-3.294-4.821-4.972
		c-2.478-2.693-2.304-6.887,0.391-9.365c2.695-2.478,6.888-2.301,9.365,0.392c1.389,1.509,2.849,3.015,4.338,4.476
		c2.616,2.561,2.661,6.756,0.098,9.371C80.02,368.756,78.3,369.42,76.581,369.42z M58.224,346.301c-2.264,0-4.468-1.16-5.707-3.248
		c-1.198-2.021-2.336-4.092-3.379-6.158c-1.651-3.268-0.341-7.254,2.926-8.905c3.263-1.651,7.253-0.343,8.905,2.926
		c0.911,1.801,1.903,3.608,2.951,5.375c1.867,3.148,0.828,7.215-2.319,9.082C60.538,346.001,59.374,346.301,58.224,346.301z
		 M47.36,318.893c-3.064,0-5.816-2.139-6.478-5.255c-0.49-2.319-0.894-4.676-1.197-7.007c-0.471-3.63,2.088-6.954,5.718-7.427
		c3.651-0.462,6.955,2.09,7.428,5.718c0.257,1.983,0.6,3.99,1.02,5.967c0.759,3.581-1.528,7.1-5.109,7.858
		C48.278,318.846,47.815,318.893,47.36,318.893z M46.541,289.459c-0.337,0-0.679-0.026-1.023-0.078
		c-3.617-0.561-6.095-3.947-5.535-7.564c0.359-2.32,0.818-4.665,1.365-6.969c0.845-3.562,4.42-5.764,7.978-4.92
		c3.562,0.844,5.765,4.415,4.92,7.977c-0.466,1.966-0.857,3.965-1.164,5.94C52.575,287.117,49.753,289.459,46.541,289.459z
		 M55.972,261.547c-1.052,0-2.119-0.251-3.111-0.78c-3.23-1.722-4.453-5.735-2.731-8.966c1.087-2.042,2.268-4.087,3.505-6.08
		c1.932-3.107,6.018-4.061,9.129-2.13c3.108,1.932,4.062,6.019,2.129,9.128c-1.083,1.743-2.116,3.532-3.066,5.317
		C60.633,260.271,58.341,261.547,55.972,261.547z M73.39,237.709c-1.641,0-3.284-0.605-4.566-1.826
		c-2.652-2.522-2.759-6.717-0.235-9.37c1.574-1.654,3.222-3.3,4.898-4.89c2.655-2.518,6.85-2.409,9.369,0.249
		c2.518,2.656,2.408,6.851-0.249,9.369c-1.512,1.433-2.997,2.916-4.415,4.406C76.889,237.018,75.141,237.709,73.39,237.709z
		 M95.962,218.629c-2.106,0-4.178-1.002-5.465-2.869c-2.076-3.014-1.314-7.141,1.7-9.217l1.125-0.769
		c1.519-1.027,3.067-2.03,4.64-3.007c3.11-1.931,7.195-0.976,9.127,2.134c1.932,3.11,0.977,7.195-2.133,9.128
		c-1.426,0.886-5.242,3.433-5.242,3.433C98.567,218.25,97.258,218.629,95.962,218.629z M272.632,205.22
		c-0.888,0-1.79-0.18-2.655-0.558c-1.902-0.833-3.867-1.645-5.834-2.411c-3.41-1.33-5.097-5.172-3.769-8.583
		c1.331-3.413,5.176-5.096,8.583-3.769c2.135,0.832,4.267,1.714,6.336,2.619c3.353,1.468,4.881,5.376,3.413,8.729
		C277.617,203.737,275.185,205.22,272.632,205.22z M121.908,204.482c-2.582,0-5.035-1.518-6.106-4.042
		c-1.428-3.371,0.146-7.26,3.516-8.689c2.072-0.878,4.209-1.733,6.354-2.543c3.424-1.295,7.248,0.434,8.542,3.86
		c1.292,3.425-0.435,7.248-3.86,8.542c-1.982,0.748-3.955,1.537-5.863,2.347C123.647,204.313,122.771,204.482,121.908,204.482z
		 M244.602,195.784c-0.524,0-1.059-0.063-1.591-0.193c-2.036-0.502-4.12-0.977-6.195-1.413c-3.582-0.752-5.876-4.267-5.123-7.849
		c0.751-3.582,4.266-5.874,7.849-5.123c2.223,0.467,4.458,0.977,6.641,1.515c3.555,0.875,5.725,4.467,4.85,8.021
		C250.288,193.761,247.582,195.784,244.602,195.784z M150.027,195.349c-3.004,0-5.725-2.057-6.444-5.107
		c-0.84-3.562,1.365-7.132,4.928-7.972c2.188-0.516,4.427-1.003,6.651-1.448c3.591-0.716,7.081,1.609,7.799,5.199
		c0.717,3.589-1.61,7.082-5.2,7.799c-2.077,0.415-4.166,0.871-6.208,1.352C151.043,195.29,150.532,195.349,150.027,195.349z
		 M215.42,190.911c-0.205,0-0.409-0.01-0.615-0.028c-2.112-0.195-4.23-0.355-6.352-0.482c-3.654-0.218-6.438-3.357-6.219-7.011
		c0.218-3.654,3.376-6.427,7.011-6.22c2.262,0.136,4.521,0.306,6.773,0.513c3.645,0.335,6.329,3.562,5.993,7.208
		C221.696,188.328,218.806,190.911,215.42,190.911z M179.253,190.75c-3.414,0-6.312-2.619-6.598-6.083
		c-0.301-3.647,2.412-6.85,6.059-7.151c2.254-0.187,4.514-0.337,6.778-0.452c3.635-0.198,6.768,2.628,6.954,6.286
		c0.184,3.656-2.629,6.768-6.286,6.953c-2.121,0.106-4.242,0.249-6.356,0.423C179.619,190.742,179.436,190.75,179.253,190.75z"/>
	<path d="M438.461,361.953c-2.172,0-4.3-1.067-5.569-3.024c-1.989-3.072-1.113-7.176,1.959-9.166
		c0.889-0.576,1.771-1.159,2.646-1.751c3.031-2.053,7.152-1.258,9.203,1.774c2.053,3.031,1.258,7.152-1.774,9.204
		c-0.946,0.641-1.903,1.273-2.866,1.898C440.945,361.609,439.694,361.953,438.461,361.953z"/>
	<path d="M322.809,394.863c-3.585,0-6.534-2.861-6.622-6.465c-0.089-3.66,2.806-6.698,6.464-6.788
		c2.197-0.054,4.396-0.134,6.591-0.243c3.642-0.188,6.769,2.636,6.948,6.291c0.181,3.656-2.636,6.768-6.292,6.948
		c-2.307,0.114-4.614,0.2-6.924,0.257C322.92,394.862,322.864,394.863,322.809,394.863z M299.16,394.366
		c-0.149,0-0.301-0.006-0.451-0.016c-2.311-0.155-4.619-0.341-6.922-0.558c-3.645-0.345-6.318-3.578-5.975-7.224
		c0.345-3.645,3.598-6.302,7.223-5.975c2.184,0.206,4.372,0.383,6.564,0.529c3.651,0.246,6.414,3.405,6.17,7.058
		C305.531,391.684,302.618,394.366,299.16,394.366z M353.12,392.376c-3.249,0-6.086-2.39-6.554-5.7
		c-0.513-3.623,2.008-6.979,5.633-7.49c2.176-0.309,4.344-0.645,6.506-1.011c3.604-0.608,7.029,1.82,7.641,5.429
		c0.61,3.609-1.82,7.029-5.43,7.641c-2.277,0.385-4.564,0.74-6.857,1.064C353.742,392.354,353.428,392.376,353.12,392.376z
		 M268.988,390.493c-0.414,0-0.834-0.038-1.256-0.12c-2.28-0.437-4.551-0.905-6.81-1.406c-3.574-0.79-5.829-4.328-5.039-7.902
		s4.333-5.824,7.904-5.039c2.137,0.473,4.284,0.916,6.442,1.33c3.594,0.689,5.949,4.161,5.26,7.758
		C274.882,388.286,272.105,390.493,268.988,390.493z M382.915,386.268c-2.915,0-5.586-1.938-6.39-4.887
		c-0.963-3.531,1.12-7.174,4.651-8.138c2.116-0.577,4.218-1.185,6.305-1.821c3.504-1.067,7.205,0.904,8.273,4.404
		c1.068,3.502-0.903,7.205-4.404,8.273c-2.215,0.676-4.443,1.32-6.688,1.932C384.079,386.191,383.491,386.268,382.915,386.268z
		 M239.543,382.844c-0.694,0-1.4-0.111-2.097-0.342c-2.213-0.736-4.407-1.506-6.583-2.31c-3.435-1.266-5.191-5.076-3.925-8.511
		c1.266-3.434,5.076-5.191,8.511-3.926c2.045,0.756,4.109,1.477,6.189,2.17c3.472,1.157,5.35,4.911,4.192,8.385
		C244.904,381.087,242.318,382.844,239.543,382.844z M411.629,376.251c-2.562,0-5.004-1.495-6.086-3.997
		c-1.454-3.359,0.091-7.262,3.451-8.716c1.994-0.864,3.996-1.771,5.945-2.698c3.305-1.57,7.261-0.164,8.831,3.144
		c1.571,3.306,0.164,7.26-3.144,8.83c-2.09,0.993-4.233,1.966-6.37,2.89C413.4,376.075,412.506,376.251,411.629,376.251z
		 M211.467,371.146c-1.013,0-2.041-0.233-3.006-0.726c-2.091-1.067-4.172-2.177-6.187-3.3c-3.197-1.783-4.342-5.82-2.56-9.018
		c1.783-3.196,5.823-4.341,9.017-2.56c1.873,1.045,3.808,2.077,5.752,3.069c3.26,1.664,4.555,5.656,2.891,8.916
		C216.204,369.825,213.879,371.146,211.467,371.146z M185.713,355.008c-1.428,0-2.866-0.459-4.079-1.408
		c-1.895-1.482-3.746-3.019-5.502-4.569c-2.745-2.421-3.008-6.61-0.586-9.354c2.421-2.746,6.61-3.007,9.354-0.586
		c1.562,1.379,3.21,2.746,4.901,4.069c2.883,2.254,3.392,6.421,1.136,9.303C189.631,354.135,187.683,355.008,185.713,355.008z
		 M164.755,333.119c-2.105,0-4.175-1-5.461-2.865c-1.393-2.02-2.706-4.099-3.9-6.178c-1.823-3.173-0.728-7.225,2.445-9.049
		c3.173-1.822,7.224-0.729,9.048,2.445c1.013,1.766,2.13,3.533,3.318,5.254c2.079,3.013,1.321,7.141-1.691,9.219
		C167.363,332.739,166.053,333.119,164.755,333.119z M152.792,305.373c-3.108,0-5.882-2.198-6.499-5.363
		c-0.473-2.432-0.825-4.91-1.045-7.366c-0.328-3.646,2.363-6.866,6.01-7.194c3.64-0.334,6.866,2.363,7.193,6.01
		c0.181,2.007,0.467,4.031,0.854,6.02c0.699,3.593-1.646,7.072-5.24,7.771C153.64,305.332,153.213,305.373,152.792,305.373z
		 M154.02,275.247c-0.587,0-1.183-0.079-1.776-0.243c-3.527-0.979-5.594-4.632-4.615-8.158c0.652-2.352,1.435-4.717,2.325-7.027
		c1.314-3.415,5.147-5.121,8.566-3.804c3.417,1.315,5.12,5.151,3.804,8.566c-0.737,1.914-1.384,3.868-1.921,5.808
		C159.59,273.322,156.924,275.247,154.02,275.247z M167.882,248.383c-1.429,0-2.869-0.46-4.081-1.41
		c-2.882-2.257-3.389-6.422-1.132-9.304c1.464-1.869,3.034-3.729,4.666-5.531c2.458-2.712,6.649-2.919,9.361-0.46
		c2.711,2.457,2.917,6.649,0.46,9.361c-1.421,1.567-2.783,3.183-4.052,4.803C171.798,247.511,169.851,248.383,167.882,248.383z"/>
	<path d="M253.369,291.456c-3.525,0-6.458-2.778-6.616-6.335c-0.162-3.658,2.671-6.754,6.329-6.915
		c2.021-0.089,4.047-0.269,6.023-0.529c3.629-0.472,6.96,2.069,7.441,5.698c0.48,3.628-2.07,6.961-5.699,7.441
		c-2.359,0.313-4.775,0.525-7.18,0.631C253.567,291.453,253.468,291.456,253.369,291.456z M230.413,288.926
		c-0.586,0-1.181-0.079-1.773-0.242c-2.373-0.656-4.708-1.435-6.939-2.311c-3.407-1.34-5.083-5.186-3.746-8.593
		c1.339-3.407,5.186-5.082,8.592-3.745c1.805,0.709,3.699,1.339,5.629,1.873c3.527,0.979,5.595,4.628,4.619,8.156
		C235.984,287.002,233.318,288.926,230.413,288.926z M282.01,284.006c-2.363,0-4.65-1.268-5.847-3.498
		c-1.73-3.225-0.519-7.242,2.708-8.972c1.357-0.729,2.666-1.518,3.888-2.346c0.337-0.228,0.669-0.459,0.992-0.692
		c2.97-2.139,7.114-1.467,9.252,1.504c2.14,2.969,1.466,7.111-1.504,9.252c-0.429,0.308-0.865,0.613-1.31,0.913
		c-1.599,1.082-3.299,2.108-5.054,3.049C284.141,283.752,283.066,284.006,282.01,284.006z M205.158,273.893
		c-1.888,0-3.762-0.802-5.072-2.357c-1.769-2.102-3.285-4.335-4.504-6.641c-1.712-3.234-0.478-7.246,2.757-8.957
		c3.233-1.714,7.245-0.479,8.958,2.758c0.779,1.472,1.765,2.92,2.929,4.301c2.358,2.8,1.999,6.98-0.8,9.339
		C208.18,273.381,206.664,273.893,205.158,273.893z M300.949,262.124c-0.5,0-1.008-0.058-1.518-0.177
		c-3.564-0.835-5.775-4.4-4.94-7.965c0.308-1.318,0.466-2.658,0.466-3.986c0-0.257-0.006-0.519-0.018-0.78
		c-0.165-3.657,2.666-6.754,6.322-6.919c3.648-0.168,6.755,2.667,6.919,6.323c0.021,0.459,0.03,0.918,0.03,1.378
		c-0.001,2.345-0.274,4.703-0.815,7.007C306.682,260.062,303.957,262.124,300.949,262.124z M200.807,246.09
		c-0.939,0-1.893-0.2-2.801-0.625c-3.316-1.548-4.749-5.493-3.2-8.81c1.113-2.381,2.534-4.698,4.223-6.883
		c2.237-2.896,6.399-3.428,9.297-1.191c2.896,2.239,3.429,6.402,1.191,9.297c-1.092,1.413-2.001,2.889-2.701,4.387
		C205.691,244.675,203.302,246.09,200.807,246.09z M291.109,235.539c-1.567,0-3.143-0.553-4.404-1.678
		c-1.196-1.064-2.521-2.091-3.941-3.05c-1.552-1.05-3.229-2.032-4.984-2.917c-3.271-1.646-4.585-5.63-2.939-8.9
		c1.646-3.271,5.633-4.584,8.901-2.938c2.261,1.139,4.431,2.409,6.45,3.774c1.903,1.287,3.697,2.677,5.328,4.13
		c2.734,2.434,2.977,6.623,0.542,9.356C294.751,234.789,292.936,235.539,291.109,235.539z M222.827,226.954
		c-2.589,0-5.049-1.527-6.113-4.063c-1.418-3.375,0.17-7.26,3.545-8.677c2.21-0.928,4.53-1.76,6.896-2.47
		c3.508-1.054,7.201,0.936,8.255,4.441c1.053,3.505-0.936,7.201-4.441,8.255c-1.922,0.576-3.799,1.25-5.58,1.996
		C224.551,226.788,223.682,226.954,222.827,226.954z M258.594,222.21c-0.248,0-0.502-0.015-0.754-0.043
		c-1.988-0.225-4.02-0.366-6.036-0.418c-3.659-0.094-6.548-3.139-6.453-6.797c0.094-3.658,3.083-6.584,6.798-6.453
		c2.398,0.062,4.816,0.229,7.184,0.499c3.638,0.413,6.251,3.696,5.84,7.332C264.787,219.711,261.92,222.21,258.594,222.21z"/>
</g>
</svg>
