<svg xmlns="http://www.w3.org/2000/svg" width="500" height="500" viewBox="0 0 500 500"><path d="M17.993 229.602C8.072 229.602 0 237.673 0 247.595c0 9.921 8.072 17.991 17.993 17.991s17.992-8.071 17.992-17.991c0-9.922-8.07-17.993-17.992-17.993zm0 27.219c-5.088 0-9.228-4.14-9.228-9.227 0-5.088 4.14-9.228 9.228-9.228s9.227 4.14 9.227 9.228-4.14 9.227-9.227 9.227zm428.357-23.818c-8.046 0-14.59 6.545-14.59 14.59s6.546 14.59 14.59 14.59 14.59-6.546 14.59-14.59-6.544-14.59-14.59-14.59zm0 20.416a5.83 5.83 0 0 1-5.824-5.824c0-3.213 2.613-5.825 5.824-5.825s5.824 2.613 5.824 5.825a5.83 5.83 0 0 1-5.824 5.824z"/><circle cx="491.068" cy="247.594" r="8.932"/><path d="M263.336 247.595c0 10.858 8.834 19.693 19.693 19.693s19.695-8.835 19.695-19.693c0-10.859-8.835-19.695-19.695-19.695s-19.693 8.835-19.693 19.695zm30.621 0c0 6.026-4.902 10.928-10.929 10.928-6.024 0-10.929-4.903-10.929-10.928 0-6.026 4.904-10.93 10.929-10.93 6.027 0 10.929 4.903 10.929 10.93z"/><path d="M370.521 204.812c-9.973 0-19.152 3.439-26.435 9.182l-6.193-2.833c-7.246-3.329-11.464-11.149-10.251-19.025l1.31-8.582a4.378 4.378 0 0 0-4.113-5.038l-11.401-.57c-7.484-.385-14.003-5.44-16.225-12.587l-2.708-8.685a4.375 4.375 0 0 0-2.253-2.628 4.376 4.376 0 0 0-3.457-.174l-10.547 3.917c-6.653 2.486-14.167.788-19.13-4.322l-7.117-7.35a4.384 4.384 0 0 0-6.297.001l-7.115 7.348a17.91 17.91 0 0 1-19.128 4.321l-10.551-3.915a4.383 4.383 0 0 0-5.709 2.81l-2.694 8.679c-2.229 7.145-8.749 12.204-16.218 12.587l-11.407.571a4.387 4.387 0 0 0-3.176 1.605 4.386 4.386 0 0 0-.937 3.433l1.31 8.581c1.202 7.875-3.02 15.699-10.261 19.024l-9.735 4.459a4.385 4.385 0 0 0-1.871 6.34l4.939 7.751a17.92 17.92 0 0 1-2.176 22.079l-6.663 6.947a4.387 4.387 0 0 0-1.201 3.445 4.387 4.387 0 0 0 1.823 3.16l8.342 5.933c6.663 4.754 9.273 13.404 6.347 21.033l-3.15 8.206a4.376 4.376 0 0 0 .204 3.592 4.388 4.388 0 0 0 2.826 2.23l10.892 2.723a17.914 17.914 0 0 1 13.553 16.126l.622 8.71a4.384 4.384 0 0 0 5.002 4.026l11.398-1.659a17.882 17.882 0 0 1 17.999 8.548l4.926 8.271a4.386 4.386 0 0 0 6.137 1.442l9.127-5.872c5.888-3.791 13.507-3.791 19.402-.001l9.113 5.871a4.372 4.372 0 0 0 3.373.584 4.386 4.386 0 0 0 2.764-2.02l4.939-8.271a17.877 17.877 0 0 1 18.004-8.552l11.395 1.659a4.382 4.382 0 0 0 5.003-4.026l.621-8.711a17.892 17.892 0 0 1 13.541-16.127l10.889-2.721a4.385 4.385 0 0 0 3.031-5.818l-3.139-8.208a17.888 17.888 0 0 1 1.264-15.447c7.809 8.309 18.886 13.513 31.161 13.513 23.591 0 42.783-19.191 42.783-42.782s-19.191-42.783-42.782-42.783zm-40.611 90.631l1.371 3.588-6.091 1.521a26.635 26.635 0 0 0-20.162 24.007l-.286 4.006-6.723-.979a26.62 26.62 0 0 0-26.798 12.731l-2.614 4.377-5.307-3.419c-8.781-5.644-20.122-5.644-28.889.001l-5.311 3.418-2.606-4.377a26.626 26.626 0 0 0-26.794-12.732l-6.728.979-.287-4.013c-.84-11.561-8.948-21.205-20.172-23.999l-6.085-1.522 1.376-3.584c4.355-11.36.473-24.234-9.446-31.312l-4.212-2.996 3.151-3.285a26.665 26.665 0 0 0 3.241-32.856l-2.235-3.507 5.164-2.366c10.78-4.95 17.06-16.594 15.271-28.314l-.577-3.786 6.567-.329c11.122-.571 20.824-8.097 24.144-18.736l1.324-4.266 6.205 2.302c9.922 3.707 21.099 1.179 28.481-6.436l3.968-4.099 3.973 4.104c7.39 7.609 18.571 10.134 28.48 6.434l6.206-2.305 1.33 4.267c3.305 10.635 13.007 18.164 24.149 18.736l6.562.328-.577 3.78c-1.803 11.721 4.471 23.365 15.264 28.322l3.146 1.438c-6.025 7.374-9.647 16.785-9.647 27.027 0 8 2.212 15.489 6.049 21.901a26.656 26.656 0 0 0-3.875 25.951zm40.611-13.832c-18.757 0-34.017-15.26-34.017-34.017s15.26-34.018 34.017-34.018c18.758 0 34.019 15.261 34.019 34.018s-15.261 34.017-34.019 34.017z"/><path d="M248.854 179.716c-26.263 0-50.161 14.18-62.777 37.11-11.873 5.171-20.198 17.013-20.198 30.77 0 11.931 6.266 22.42 15.674 28.367 10.298 28.22 37.13 47.07 67.301 47.07 39.52 0 71.672-32.146 71.672-71.658-.001-39.514-32.154-71.659-71.672-71.659zm-74.211 67.879c0-13.666 11.117-24.782 24.782-24.782 13.664 0 24.782 11.117 24.782 24.782 0 13.663-11.117 24.782-24.782 24.782-13.664 0-24.782-11.118-24.782-24.782zm74.211 66.673a62.87 62.87 0 0 1-55.732-33.729c2.043.391 4.149.603 6.305.603 18.498 0 33.547-15.049 33.547-33.547 0-18.499-15.049-33.547-33.547-33.547-.409 0-.814.017-1.22.031 11.742-15.986 30.393-25.597 50.647-25.597 34.687 0 62.906 28.213 62.906 62.892s-28.221 62.894-62.906 62.894zm-118.552-107.28c-5.381-5.379-15.627-3.964-28.903 3.938a37.767 37.767 0 0 0-7.58-.768c-9.999 0-19.401 3.894-26.471 10.964-9.225 9.225-12.611 22.103-10.177 34.019-7.919 13.29-9.342 23.549-3.958 28.934 2.155 2.156 5.088 3.225 8.681 3.225 4.647 0 10.415-1.816 17.021-5.354a37.335 37.335 0 0 0 14.903 3.084c9.999 0 19.4-3.895 26.471-10.965 7.07-7.071 10.964-16.473 10.964-26.471a37.346 37.346 0 0 0-3.081-14.898c6.28-11.722 7.071-20.768 2.13-25.708zm-56.755 20.333c5.415-5.416 12.615-8.398 20.273-8.398s14.858 2.982 20.273 8.398a28.847 28.847 0 0 1 4.097 5.164c-4.386 7.139-10.472 14.686-17.632 21.845-7.166 7.168-14.71 13.252-21.847 17.633a28.842 28.842 0 0 1-5.164-4.096c-11.178-11.179-11.178-29.367 0-40.546zm-14.133 50.556c-1.073-1.07-1.143-5.031 1.875-11.772a37.317 37.317 0 0 0 8.742 10.398c-6.033 2.5-9.609 2.385-10.617 1.374zm54.679-10.01c-5.415 5.415-12.614 8.397-20.272 8.397a28.99 28.99 0 0 1-5.042-.448c6.006-4.238 12.126-9.436 17.979-15.287 5.848-5.847 11.043-11.968 15.286-17.978.292 1.649.448 3.334.448 5.043-.002 7.658-2.983 14.857-8.399 20.273zm6.198-46.743a37.587 37.587 0 0 0-7.949-6.067c6.735-3.013 10.692-2.942 11.762-1.869 1.009 1.009 1.124 4.582-1.378 10.617a37.461 37.461 0 0 0-2.435-2.681z"/></svg>