<?xml version="1.0" encoding="utf-8"?>
<!-- Generator: Adobe Illustrator 16.0.0, SVG Export Plug-In . SVG Version: 6.00 Build 0)  -->
<!DOCTYPE svg PUBLIC "-//W3C//DTD SVG 1.1//EN" "http://www.w3.org/Graphics/SVG/1.1/DTD/svg11.dtd">
<svg version="1.1" id="Capa_1" xmlns="http://www.w3.org/2000/svg" xmlns:xlink="http://www.w3.org/1999/xlink" x="0px" y="0px"
	 width="500px" height="500px" viewBox="0 0 500 500" enable-background="new 0 0 500 500" xml:space="preserve">
<g>
	<path d="M17.993,229.602C8.072,229.602,0,237.673,0,247.595c0,9.921,8.072,17.991,17.993,17.991s17.992-8.071,17.992-17.991
		C35.985,237.673,27.915,229.602,17.993,229.602z M17.993,256.821c-5.088,0-9.228-4.14-9.228-9.227c0-5.088,4.14-9.228,9.228-9.228
		s9.227,4.14,9.227,9.228C27.22,252.682,23.08,256.821,17.993,256.821z"/>
	<path d="M446.35,233.003c-8.046,0-14.59,6.545-14.59,14.59s6.546,14.59,14.59,14.59s14.59-6.546,14.59-14.59
		S454.396,233.003,446.35,233.003z M446.35,253.419c-3.213,0-5.824-2.613-5.824-5.824c0-3.213,2.613-5.825,5.824-5.825
		s5.824,2.613,5.824,5.825C452.174,250.806,449.562,253.419,446.35,253.419z"/>
	<circle cx="491.068" cy="247.594" r="8.932"/>
	<path d="M263.336,247.595c0,10.858,8.834,19.693,19.693,19.693s19.695-8.835,19.695-19.693c0-10.859-8.835-19.695-19.695-19.695
		S263.336,236.735,263.336,247.595z M293.957,247.595c0,6.026-4.902,10.928-10.929,10.928c-6.024,0-10.929-4.903-10.929-10.928
		c0-6.026,4.904-10.93,10.929-10.93C289.055,236.665,293.957,241.568,293.957,247.595z"/>
	<path d="M370.521,204.812c-9.973,0-19.152,3.439-26.435,9.182l-6.193-2.833c-7.246-3.329-11.464-11.149-10.251-19.025l1.31-8.582
		c0.188-1.226-0.153-2.473-0.937-3.433s-1.938-1.544-3.176-1.605l-11.401-0.57c-7.484-0.385-14.003-5.44-16.225-12.587l-2.708-8.685
		c-0.357-1.148-1.173-2.099-2.253-2.628c-1.078-0.53-2.329-0.594-3.457-0.174l-10.547,3.917c-6.653,2.486-14.167,0.788-19.13-4.322
		l-7.117-7.35c-0.824-0.853-1.962-1.333-3.148-1.333s-2.323,0.481-3.149,1.334l-7.115,7.348c-4.957,5.113-12.461,6.811-19.128,4.321
		l-10.551-3.915c-1.127-0.418-2.378-0.355-3.459,0.177c-1.079,0.531-1.895,1.483-2.25,2.633l-2.694,8.679
		c-2.229,7.145-8.749,12.204-16.218,12.587l-11.407,0.571c-1.238,0.062-2.392,0.646-3.176,1.605
		c-0.783,0.96-1.124,2.208-0.937,3.433l1.31,8.581c1.202,7.875-3.02,15.699-10.261,19.024l-9.735,4.459
		c-1.152,0.528-2.019,1.529-2.378,2.744c-0.359,1.215-0.174,2.527,0.507,3.596l4.939,7.751c4.464,7.004,3.567,16.083-2.176,22.079
		l-6.663,6.947c-0.882,0.92-1.32,2.178-1.201,3.445c0.12,1.269,0.786,2.421,1.823,3.16l8.342,5.933
		c6.663,4.754,9.273,13.404,6.347,21.033l-3.15,8.206c-0.45,1.171-0.376,2.479,0.204,3.592c0.58,1.113,1.609,1.926,2.826,2.23
		l10.892,2.723c7.541,1.877,12.987,8.359,13.553,16.126l0.622,8.71c0.086,1.215,0.675,2.34,1.624,3.104
		c0.949,0.764,2.172,1.098,3.378,0.922l11.398-1.659c7.203-1.056,14.269,2.301,17.999,8.548l4.926,8.271
		c0.608,1.021,1.605,1.752,2.762,2.023c1.157,0.272,2.374,0.062,3.375-0.581l9.127-5.872c5.888-3.791,13.507-3.791,19.402-0.001
		l9.113,5.871c0.713,0.461,1.539,0.699,2.374,0.699c0.334,0,0.668-0.038,0.999-0.115c1.157-0.271,2.154-1,2.764-2.02l4.939-8.271
		c3.73-6.251,10.794-9.61,18.004-8.552l11.395,1.659c1.209,0.175,2.429-0.16,3.379-0.924c0.949-0.764,1.537-1.887,1.624-3.102
		l0.621-8.711c0.554-7.764,5.995-14.244,13.541-16.127l10.889-2.721c1.217-0.304,2.245-1.115,2.825-2.227
		c0.578-1.112,0.654-2.42,0.206-3.591l-3.139-8.208c-1.979-5.164-1.436-10.831,1.264-15.447
		c7.809,8.309,18.886,13.513,31.161,13.513c23.591,0,42.783-19.191,42.783-42.782S394.112,204.812,370.521,204.812z M329.91,295.443
		l1.371,3.588l-6.091,1.521c-11.234,2.801-19.337,12.449-20.162,24.007l-0.286,4.006l-6.723-0.979
		c-10.724-1.574-21.242,3.427-26.798,12.731l-2.614,4.377l-5.307-3.419c-8.781-5.644-20.122-5.644-28.889,0.001l-5.311,3.418
		l-2.606-4.377c-5.556-9.307-16.075-14.299-26.794-12.732l-6.728,0.979l-0.287-4.013c-0.84-11.561-8.948-21.205-20.172-23.999
		l-6.085-1.522l1.376-3.584c4.355-11.36,0.473-24.234-9.446-31.312l-4.212-2.996l3.151-3.285c8.549-8.924,9.883-22.435,3.241-32.856
		l-2.235-3.507l5.164-2.366c10.78-4.95,17.06-16.594,15.271-28.314l-0.577-3.786l6.567-0.329
		c11.122-0.571,20.824-8.097,24.144-18.736l1.324-4.266l6.205,2.302c9.922,3.707,21.099,1.179,28.481-6.436l3.968-4.099l3.973,4.104
		c7.39,7.609,18.571,10.134,28.48,6.434l6.206-2.305l1.33,4.267c3.305,10.635,13.007,18.164,24.149,18.736l6.562,0.328l-0.577,3.78
		c-1.803,11.721,4.471,23.365,15.264,28.322l3.146,1.438c-6.025,7.374-9.647,16.785-9.647,27.027c0,8,2.212,15.489,6.049,21.901
		C328.086,276.795,326.529,286.617,329.91,295.443z M370.521,281.611c-18.757,0-34.017-15.26-34.017-34.017
		s15.26-34.018,34.017-34.018c18.758,0,34.019,15.261,34.019,34.018S389.279,281.611,370.521,281.611z"/>
	<path d="M248.854,179.716c-26.263,0-50.161,14.18-62.777,37.11c-11.873,5.171-20.198,17.013-20.198,30.77
		c0,11.931,6.266,22.42,15.674,28.367c10.298,28.22,37.13,47.07,67.301,47.07c39.52,0,71.672-32.146,71.672-71.658
		C320.525,211.861,288.372,179.716,248.854,179.716z M174.643,247.595c0-13.666,11.117-24.782,24.782-24.782
		c13.664,0,24.782,11.117,24.782,24.782c0,13.663-11.117,24.782-24.782,24.782C185.761,272.377,174.643,261.259,174.643,247.595z
		 M248.854,314.268c-23.679,0-45.018-13.226-55.732-33.729c2.043,0.391,4.149,0.603,6.305,0.603
		c18.498,0,33.547-15.049,33.547-33.547c0-18.499-15.049-33.547-33.547-33.547c-0.409,0-0.814,0.017-1.22,0.031
		c11.742-15.986,30.393-25.597,50.647-25.597c34.687,0,62.906,28.213,62.906,62.892C311.76,286.053,283.539,314.268,248.854,314.268
		z"/>
	<path d="M130.302,206.988c-5.381-5.379-15.627-3.964-28.903,3.938c-2.467-0.505-5.002-0.768-7.58-0.768
		c-9.999,0-19.401,3.894-26.471,10.964c-9.225,9.225-12.611,22.103-10.177,34.019c-7.919,13.29-9.342,23.549-3.958,28.934
		c2.155,2.156,5.088,3.225,8.681,3.225c4.647,0,10.415-1.816,17.021-5.354c4.643,2.016,9.69,3.084,14.903,3.084
		c9.999,0,19.4-3.895,26.471-10.965c7.07-7.071,10.964-16.473,10.964-26.471c0-5.211-1.067-10.256-3.081-14.898
		C134.452,220.974,135.243,211.928,130.302,206.988z M73.547,227.321c5.415-5.416,12.615-8.398,20.273-8.398
		s14.858,2.982,20.273,8.398c1.58,1.579,2.945,3.314,4.097,5.164c-4.386,7.139-10.472,14.686-17.632,21.845
		c-7.166,7.168-14.71,13.252-21.847,17.633c-1.85-1.151-3.585-2.517-5.164-4.096C62.369,256.688,62.369,238.5,73.547,227.321z
		 M59.414,277.877c-1.073-1.07-1.143-5.031,1.875-11.772c1.62,2.851,3.634,5.534,6.061,7.962c0.86,0.859,1.755,1.67,2.681,2.436
		C63.998,279.003,60.422,278.888,59.414,277.877z M114.093,267.867c-5.415,5.415-12.614,8.397-20.272,8.397
		c-1.709,0-3.393-0.157-5.042-0.448c6.006-4.238,12.126-9.436,17.979-15.287c5.848-5.847,11.043-11.968,15.286-17.978
		c0.292,1.649,0.448,3.334,0.448,5.043C122.49,255.252,119.509,262.451,114.093,267.867z M120.291,221.124
		c-2.401-2.401-5.077-4.427-7.949-6.067c6.735-3.013,10.692-2.942,11.762-1.869c1.009,1.009,1.124,4.582-1.378,10.617
		C121.962,222.878,121.151,221.983,120.291,221.124z"/>
</g>
</svg>
