<?xml version="1.0" encoding="utf-8"?>
<!-- Generator: Adobe Illustrator 16.0.0, SVG Export Plug-In . SVG Version: 6.00 Build 0)  -->
<!DOCTYPE svg PUBLIC "-//W3C//DTD SVG 1.1//EN" "http://www.w3.org/Graphics/SVG/1.1/DTD/svg11.dtd">
<svg version="1.1" id="Layer_1" xmlns="http://www.w3.org/2000/svg" xmlns:xlink="http://www.w3.org/1999/xlink" x="0px" y="0px"
	 width="808.406px" height="79.95px" viewBox="115.674 0 808.406 79.95" enable-background="new 115.674 0 808.406 79.95"
	 xml:space="preserve">
<g>
	<g>
		<g>
			<g>
				<path fill="#222222" d="M222.093,0c-22.077,0-39.975,17.896-39.975,39.976c0,22.076,17.897,39.975,39.975,39.975
					c22.079,0,39.974-17.897,39.974-39.975C262.066,17.896,244.172,0,222.093,0z M222.093,58.963c-10.487,0-18.99-8.5-18.99-18.987
					c0-10.488,8.502-18.989,18.99-18.989c10.488,0,18.99,8.501,18.99,18.989C241.083,50.463,232.581,58.963,222.093,58.963z"/>
				<path fill="#222222" d="M189.922,9.772V1.93h-7.586l-29.223,32.494l-1.257,0.088L123.241,1.93h-7.567l0.022,76.284h19.402
					V44.918l16.671,16.619l2.08,0.028l15.928-16.647v33.297h20.145v-8.039c-7.415-7.896-11.965-18.514-11.965-30.2
					C177.957,28.288,182.507,17.669,189.922,9.772z"/>
				<path fill="#222222" d="M358.529,65.129l-14.432-23.333C362.655,31.304,358.146,1.93,358.146,1.93H338.81
					c2.688,34.662-19.8,29.112-19.8,29.112V1.966h-20.117v37.402L260.682,1.966l-6.938-0.035v7.298
					c7.723,7.947,12.484,18.789,12.484,30.747c0,11.957-4.763,22.798-12.484,30.747V78.1h20.232V40.986L311.958,78.1h6.822V49.194
					h7.803L343.464,78.1h15.065"/>
			</g>
			<g>
				<path fill="#222222" d="M424.466,65.912c0,3.752-2.481,6.908-7.428,9.469c-4.238,2.155-8.433,3.235-12.58,3.235
					c-4.477,0-8.71-1.081-12.703-3.235c-4.792-2.561-7.189-5.874-7.189-9.946V1.933h39.896v63.979H424.466z M416.438,65.311V8.281
					h-23.844v56.55c0,2.242,1.473,4.119,4.413,5.634c2.464,1.199,4.967,1.794,7.505,1.794c2.311,0,4.732-0.598,7.279-1.794
					C414.89,69.027,416.438,67.309,416.438,65.311z"/>
				<path fill="#222222" d="M479.699,40.392c0,2.799-2.077,5.636-6.227,8.509c-3.836,2.716-7.235,4.074-10.191,4.074h-15.449v25.643
					h-8.029V1.933h39.896V40.392L479.699,40.392z M471.669,39.796V8.281h-23.84v38.343h14.141c1.593,0,3.611-0.762,6.048-2.277
					C470.453,42.831,471.669,41.312,471.669,39.796z"/>
				<path fill="#222222" d="M532.892,65.912c0,3.752-2.476,6.908-7.429,9.469c-4.235,2.155-8.426,3.235-12.576,3.235
					c-4.479,0-8.709-1.081-12.706-3.235c-4.794-2.561-7.188-5.874-7.188-9.946V1.933h39.896v38.34h-8.026V8.281h-23.847v38.343
					h31.873v6.351h-31.873v12.336c0,2.239,1.671,4.033,5.009,5.396c2.545,1.036,4.852,1.555,6.913,1.555
					c2.224,0,4.651-0.638,7.273-1.915c3.103-1.438,4.651-3.153,4.651-5.147v-5.754h8.026v6.467H532.892z"/>
				<path fill="#222222" d="M586.926,78.616H565.72l-6.23-70.337h-4.434v70.337h-8.026V1.93h19.891l5.87,70.329h6.112V1.93h8.023
					V78.616L586.926,78.616z"/>
				<path fill="#222222" d="M650.312,65.912c0,3.752-2.477,6.908-7.432,9.469c-4.231,2.155-8.425,3.235-12.581,3.235
					c-4.154,0-8.346-1.122-12.581-3.361c-4.867-2.554-7.307-5.667-7.307-9.346v-6.468h8.028v5.867c0,2.239,1.666,4.033,5.012,5.396
					c2.538,1.037,4.842,1.556,6.91,1.556c2.217,0,4.646-0.638,7.271-1.918c3.103-1.438,4.645-3.151,4.645-5.146V53.092h-31.865
					V1.933h39.9v38.34h-8.035V8.281h-23.834v38.226h31.869V65.912L650.312,65.912z"/>
				<path fill="#222222" d="M705.062,65.912c0,3.752-2.475,6.908-7.428,9.469c-4.237,2.155-8.429,3.235-12.579,3.235
					c-4.476,0-8.709-1.081-12.704-3.235c-4.786-2.561-7.188-5.874-7.188-9.946V1.933h39.896v63.979H705.062z M697.034,65.311V8.281
					h-23.837v56.55c0,2.242,1.468,4.119,4.41,5.634c2.463,1.199,4.965,1.794,7.508,1.794c2.307,0,4.729-0.598,7.268-1.794
					C695.488,69.027,697.034,67.309,697.034,65.311z"/>
				<path fill="#222222" d="M760.296,65.912c0,3.752-2.478,6.908-7.426,9.469c-4.235,2.155-8.429,3.235-12.581,3.235
					c-4.478,0-8.709-1.081-12.702-3.235c-4.796-2.561-7.191-5.874-7.191-9.946V1.933h8.028v63.378c0,2.16,1.511,3.918,4.529,5.273
					c2.467,1.122,4.931,1.677,7.395,1.677c2.381,0,4.847-0.597,7.39-1.793c3.024-1.439,4.534-3.197,4.534-5.27V1.935h8.022v63.977
					H760.296z"/>
				<path fill="#222222" d="M815.526,31.889c0,3.99-1.915,8.107-5.749,12.341c-3.675,3.914-7.549,6.47-11.625,7.666l17.374,23.358
					l-7.909,3.361l-18.088-25.643h-5.873v25.643h-8.023V1.93h39.894V31.889z M807.5,31.647V8.281h-23.839v38.343h8.269
					c3.353,0,6.785-1.659,10.301-4.973C805.742,38.344,807.5,35.001,807.5,31.647z"/>
				<path fill="#222222" d="M870.164,65.912c0,3.752-2.478,6.908-7.428,9.469c-4.233,2.155-8.424,3.235-12.581,3.235
					c-4.476,0-8.707-1.081-12.702-3.235c-4.796-2.561-7.188-5.874-7.188-9.946V1.933h39.896v44.691h-8.026V8.281h-23.845v57.03
					c0,2.16,1.509,3.918,4.537,5.273c2.459,1.122,4.926,1.677,7.391,1.677c2.221,0,4.645-0.638,7.269-1.917
					c3.099-1.438,4.651-3.151,4.651-5.146v-5.754h8.025V65.912z"/>
				<path fill="#222222" d="M924.08,65.912c0,3.752-2.482,6.908-7.436,9.469c-4.232,2.155-8.426,3.235-12.578,3.235
					c-4.475,0-8.705-1.081-12.7-3.235c-4.798-2.561-7.188-5.874-7.188-9.946V1.933h39.899v38.34h-8.031V8.281h-23.842v38.343h31.875
					v6.351h-31.875v12.336c0,2.239,1.666,4.033,5.004,5.396c2.543,1.036,4.852,1.555,6.914,1.555c2.228,0,4.651-0.638,7.274-1.915
					c3.103-1.438,4.651-3.153,4.651-5.147v-5.754h8.031V65.912z"/>
			</g>
		</g>
		<polygon display="none" fill="#222222" points="79.919,116.847 91.833,1.98 111.527,1.98 99.192,116.847 		"/>
	</g>
	<g display="none">
		<g display="inline">
			<polygon fill="#222222" points="51.94,2.28 77.062,2.28 25.437,59.214 77.062,117.061 51.483,117.061 0,59.332 			"/>
		</g>
		<g display="inline">
			<polygon fill="#222222" points="386.751,1.604 361.63,1.604 413.254,59.214 361.63,117.061 387.208,117.061 438.691,59.332
				"/>
		</g>
	</g>
</g>
</svg>
