<?xml version="1.0" encoding="utf-8"?>
<!-- Generator: Adobe Illustrator 16.0.0, SVG Export Plug-In . SVG Version: 6.00 Build 0)  -->
<!DOCTYPE svg PUBLIC "-//W3C//DTD SVG 1.1//EN" "http://www.w3.org/Graphics/SVG/1.1/DTD/svg11.dtd">
<svg version="1.1" id="Layer_1" xmlns="http://www.w3.org/2000/svg" xmlns:xlink="http://www.w3.org/1999/xlink" x="0px" y="0px"
	 width="135px" height="100px" viewBox="0 0 135 100" enable-background="new 0 0 135 100" xml:space="preserve">
<path id="XMLID_90_" display="none" fill="#FF4455" d="M1.544,83.547l14.91,14.909c0.988,0.989,2.329,1.544,3.727,1.544
	s2.739-0.555,3.727-1.544L50,72.365l26.092,26.091C77.08,99.445,78.421,100,79.818,100c1.398,0,2.739-0.555,3.728-1.544
	l14.91-14.909c2.059-2.059,2.059-5.396,0-7.455L72.365,50l26.091-26.092C99.445,22.92,100,21.579,100,20.181
	c0-1.398-0.555-2.739-1.544-3.728L83.547,1.544c-2.059-2.059-5.396-2.059-7.455,0L50,27.635L23.908,1.544
	c-2.058-2.059-5.396-2.059-7.455,0l-14.91,14.91C0.555,17.442,0,18.783,0,20.181s0.555,2.739,1.544,3.727L27.635,50L1.544,76.092
	C-0.515,78.15-0.515,81.488,1.544,83.547z"/>
<path id="XMLID_89_" fill="#3FC380" d="M30.262,90.633c0.853,0.852,2.01,1.331,3.215,1.331c1.206,0,2.362-0.479,3.215-1.331
	l61.977-61.979C99.521,27.803,100,26.646,100,25.44s-0.479-2.362-1.332-3.215L85.811,9.368c-1.775-1.775-4.654-1.775-6.43,0
	L33.478,55.271L20.619,42.412c-0.853-0.852-2.01-1.331-3.215-1.331s-2.361,0.479-3.215,1.331L1.332,55.271
	c-1.775,1.775-1.775,4.653,0,6.429L30.262,90.633z"/>
</svg>
