<svg xmlns="http://www.w3.org/2000/svg" viewBox="0 0 291.364 291.364"><path d="M145.683 90.937c30.17 0 54.622 24.471 54.622 54.622 0 30.179-24.453 54.622-54.622 54.622-30.152 0-54.622-24.453-54.622-54.622 0-30.151 24.471-54.622 54.622-54.622z" fill="#26a6d1"/><path d="M145.683 218.398c-36.852 0-67.231-27.384-72.074-62.925L23.402 68.414l-.055-.127-5.617 8.111c-1.384 2.54-2.731 5.116-3.969 7.747l-2.686 6.282c-.892 2.167-1.775 4.361-2.567 6.6-.892 2.485-1.666 4.998-2.403 7.52l-1.62 5.799a148.603 148.603 0 0 0-1.766 8.13l-.983 5.744c-.401 2.667-.71 5.317-.947 7.966l-.473 6.345c-.118 2.422-.164 4.834-.164 7.256s.036 4.843.164 7.256l.473 6.345c.246 2.649.564 5.317.947 7.966l.983 5.744c.528 2.722 1.092 5.426 1.766 8.13l1.62 5.799c.747 2.504 1.511 5.034 2.403 7.52.792 2.221 1.684 4.406 2.567 6.6.874 2.094 1.711 4.197 2.686 6.272 1.238 2.631 2.585 5.189 3.978 7.756l1.812 3.56.838 1.302c1.602 2.74 3.368 5.353 5.153 7.966l2.859 4.251c1.721 2.349 3.605 4.588 5.49 6.846l3.769 4.515c1.639 1.793 3.396 3.505 5.125 5.226 1.73 1.739 3.432 3.523 5.235 5.134l4.515 3.787c2.258 1.866 4.497 3.751 6.846 5.48l4.215 2.877c2.622 1.793 5.253 3.56 7.966 5.153l1.293.838 3.55 1.812c2.549 1.384 5.116 2.758 7.747 3.987l.756.391 3.687 1.511c9.85 4.197 20.137 7.165 30.625 9.122l41.558-72.065c-4.871.975-9.915 1.53-15.095 1.53z" fill="#3db39e"/><path d="M290.851 135.636l-.191-2.403c-1.029-12.163-6.027-29.769-10.178-41.586h-85.966c14.702 13.319 23.997 32.5 23.997 53.912 0 23.105-10.788 43.652-27.539 56.989l-51.208 88.816c18.007 0 42.25-3.25 59.693-10.223l.592-.191.929-.391c5.945-2.467 11.826-5.171 17.552-8.485 5.125-2.95 9.923-6.263 14.557-9.723l.264-.209c4.461-3.378 8.639-6.973 12.627-10.761l.619-.537 2.012-2.048c8.812-8.822 16.378-18.562 22.55-29.068l.701-1.029 1.265-2.558a148.144 148.144 0 0 0 5.499-11.043l2.148-5.053c1.42-3.56 2.658-7.165 3.796-10.815l1.502-4.698a148.34 148.34 0 0 0 3.378-15.367l.355-2.95a149.845 149.845 0 0 0 1.302-13.428l.082-3.614c.072-4.497-.019-9.021-.338-13.537z" fill="#efc75e"/><path d="M271.779 72.73c-3.05-5.28-6.464-10.205-10.051-14.957l-1.174-1.457a140.748 140.748 0 0 0-10.242-11.826l-2.44-2.504c-3.96-3.896-8.066-7.593-12.372-10.97l-.947-.801c-4.798-3.696-9.823-7.019-15.003-10.06l-1.038-.692-3.942-2.048c-2.276-1.229-4.543-2.458-6.882-3.56-2.249-1.047-4.515-1.976-6.782-2.913l-5.708-2.276c-2.758-.992-5.544-1.83-8.339-2.686l-4.643-1.347c-3.041-.783-6.109-1.402-9.167-1.994l-4.333-.856c-2.986-.482-5.972-.783-8.967-1.065l-4.907-.501c-2.567-.164-5.125-.146-7.711-.182L140.813 0l-4.916.355a145.347 145.347 0 0 0-32.418 5.899l-2.212.601c-2.704.874-5.371 1.939-8.048 2.986l-5.134 2.03c-2.203.938-4.379 2.039-6.564 3.123-2.112 1.038-4.233 2.085-6.309 3.241l-2.367 1.211-3.496 2.258c-2.067 1.275-4.115 2.576-6.127 3.96a183.648 183.648 0 0 0-5.799 4.215l-5.007 3.997a154.31 154.31 0 0 0-6.036 5.307l-3.714 3.623c-2.158 2.167-4.27 4.37-6.263 6.646l-1.356 1.639 41.431 71.874c9.513-29.141 36.888-50.234 69.216-50.234-.002-.001 126.085-.001 126.085-.001z" fill="#e2574c"/></svg>