<svg xmlns="http://www.w3.org/2000/svg" viewBox="0 0 291.678 291.678"><path d="M145.66 4.277c75.561 0 136.556 60.995 136.556 136.556S221.22 277.389 145.66 277.389 9.104 216.394 9.104 140.833 70.099 4.277 145.66 4.277z" fill="#2394bc"/><path d="M169.329 284.671c69.188-11.835 121.99-71.009 121.99-143.839l-.91 1.821c1.821-13.656 1.821-26.401-.91-36.415-.91 8.193-1.821 12.745-3.642 14.566 0-.91 0-9.104-2.731-20.028-.91-8.193-2.731-16.387-5.462-23.67.91 3.641.91 6.373.91 9.104-10.924-28.222-36.415-63.726-101.051-62.816 0 0 22.759 2.731 32.773 18.207 0 0-10.924-2.731-19.118 1.821 10.014 3.641 19.118 8.193 26.401 12.745h.91c1.821.91 3.641 2.731 5.462 3.641 13.656 10.014 26.401 23.67 25.49 40.967-3.641-5.462-7.283-9.104-12.745-10.014 6.373 24.58 6.373 44.608 1.821 60.085-3.641-10.924-6.373-16.387-9.104-19.118 3.641 32.773-.91 56.443-15.476 71.919 2.731-9.104 3.641-17.297 3.641-23.67-17.297 25.49-36.415 39.146-58.264 40.056-8.193 0-16.387-.91-24.58-3.641-10.924-3.641-20.939-10.014-30.042-19.118 13.656.91 27.311-.91 38.236-7.283l18.207-11.835c2.731-.91 4.552-.91 7.283 0 4.552-.91 6.373-2.731 4.552-7.283-1.821-2.731-5.462-5.462-10.014-8.193-9.104-4.552-19.118-3.641-29.132 2.731-10.014 5.462-19.118 5.462-28.222-.91-5.462-3.641-11.835-9.104-17.297-16.387l-1.821-3.641c-.91 8.193 0 17.297 3.641 30.042-3.641-11.835-4.552-21.849-3.641-30.042 0-6.373 2.731-10.924 8.193-10.924h-1.821 2.731c6.373.91 12.745 1.821 20.939 4.552.91-7.283 0-15.476-5.462-23.67 7.283-7.283 13.656-11.835 19.118-14.566 2.731-.91 3.641-3.641 4.552-6.373 1.821-3.641.91-5.462-.91-7.283-5.462 0-10.014 0-15.476-.91-1.821-.91-4.552-2.731-8.193-5.462l-8.193-8.193-2.731-1.821-.91-.91.91-.91c.91-6.373 2.731-11.835 5.462-16.387l.91-.91c2.731-4.552 8.193-9.104 15.476-14.566-14.566 1.821-27.311 8.193-39.146 19.118-9.104-2.731-20.939-1.821-33.684 3.641l-1.821.91 1.821-.91c-8.193-3.641-13.656-14.566-16.387-32.773C20.939 36.14 16.387 55.258 16.387 81.659l-2.731 4.552-.91.91c-1.821 2.731-3.641 6.373-6.373 10.924C2.732 105.328.911 110.79.911 116.252v5.462l8.193-6.373c-2.731 8.193-5.462 16.387-6.373 24.58v3.641L0 140.833c0 30.953 10.014 60.085 26.401 83.754l.91.91.91.91c11.835 16.387 27.311 30.042 45.519 40.967 12.745 7.283 26.401 12.745 40.967 16.387l2.731.91c2.731.91 6.373.91 9.104 1.821 2.731 0 4.552.91 7.283.91h21.849c3.641 0 7.283-.91 10.924-.91 0-1.821 2.731-1.821 2.731-1.821zm91.948-177.522v.91-.91z" fill="#ec8840"/></svg>