<svg xmlns="http://www.w3.org/2000/svg" viewBox="0 0 512 512"><path d="M497.996 253.792C497.996 415.06 398.152 512 251.188 512c-137.384 0-237.184-97.628-237.184-252.304C14.004 113.196 115.152 0 258.024 0c142.18 0 239.972 103.544 239.972 253.792zm-244.788-174.4c-67.92 0-104.388 67.696-104.388 166 0 71.828 23.748 187.216 113.796 187.216 72.36 0 100.564-75.344 100.564-170.72 0-100.648-41.46-182.496-109.972-182.496z" fill="#e16b5a"/><g fill="#bf5b4d"><path d="M244.908 79.784c-2.532-.236-5.084-.392-7.7-.392-67.92 0-104.388 67.696-104.388 166 0 71.828 23.748 187.216 113.796 187.216 2.656 0 5.236-.128 7.764-.328-83.272-6.82-105.568-117.3-105.568-186.888.008-94.212 33.516-160.268 96.096-165.608z"/><path d="M258.024 0c-2.584 0-5.116.116-7.672.188 137.64 3.984 231.644 106.316 231.644 253.604 0 158.208-96.12 254.432-238.52 258.036 2.568.072 5.116.172 7.712.172 146.964 0 246.808-96.936 246.808-258.208C497.996 103.544 400.204 0 258.024 0z"/></g></svg>